<svg xmlns="http://www.w3.org/2000/svg" viewBox="0 0 218.85 39.93"><defs><style>.cls-1{fill:#e51e27;}.cls-2{fill:#fff;stroke:#e51e27;stroke-miterlimit:10;stroke-width:0.98px;}.cls-3{fill:#231f20;}</style></defs><title>Asset 14</title><g id="Layer_2" data-name="Layer 2"><g id="Layer_1-2" data-name="Layer 1"><circle class="cls-1" cx="25.93" cy="17.62" r="17.62"/><path class="cls-2" d="M4.64,38.49H.83L17.55,8.55a1.93,1.93,0,0,1,1.69-1h4L6.55,37.37A2.2,2.2,0,0,1,4.64,38.49Z"/><path class="cls-2" d="M12.92,38.49H9L22.26,14.92a1.86,1.86,0,0,1,1.64-1h4L14.62,37.5A2,2,0,0,1,12.92,38.49Z"/><path class="cls-2" d="M20.88,38.49H17L26.6,21.34a1.93,1.93,0,0,1,1.67-1h4L22.61,37.48A2,2,0,0,1,20.88,38.49Z"/><path class="cls-3" d="M56.57,31.37a.16.16,0,0,1-.15.1.37.37,0,0,1-.2-.09,2.48,2.48,0,0,0-.31-.19,3.31,3.31,0,0,0-.49-.2,2.75,2.75,0,0,0-.7-.08A2.15,2.15,0,0,0,54,31a2,2,0,0,0-.52.29,1.37,1.37,0,0,0-.34.42,1,1,0,0,0-.12.49.85.85,0,0,0,.17.54,1.4,1.4,0,0,0,.43.36,3.85,3.85,0,0,0,.61.27l.7.22c.24.07.47.15.7.24a2.73,2.73,0,0,1,.61.33,1.87,1.87,0,0,1,.44.49,1.43,1.43,0,0,1,.16.71,2.12,2.12,0,0,1-.16.83,2,2,0,0,1-.47.67,2.24,2.24,0,0,1-.75.45,3,3,0,0,1-1,.16,3.13,3.13,0,0,1-1.25-.23,3.42,3.42,0,0,1-.94-.6l.16-.24.08-.08a.16.16,0,0,1,.11,0,.38.38,0,0,1,.22.11,2,2,0,0,0,.34.24,2.39,2.39,0,0,0,.53.24,2.46,2.46,0,0,0,.77.11,2.26,2.26,0,0,0,.77-.12,1.58,1.58,0,0,0,.55-.33,1.29,1.29,0,0,0,.33-.48,1.52,1.52,0,0,0,.12-.59,1,1,0,0,0-.17-.58,1.32,1.32,0,0,0-.43-.38,2.62,2.62,0,0,0-.61-.27l-.7-.22a7.39,7.39,0,0,1-.71-.24,2.73,2.73,0,0,1-.61-.33,1.67,1.67,0,0,1-.43-.49,1.41,1.41,0,0,1-.17-.71,1.67,1.67,0,0,1,.16-.7,1.89,1.89,0,0,1,.45-.6,2.28,2.28,0,0,1,.72-.4,2.77,2.77,0,0,1,.94-.15,3.15,3.15,0,0,1,1.11.18,2.73,2.73,0,0,1,.9.55Z"/><path class="cls-3" d="M63.1,37.37a.24.24,0,0,1-.26-.19l-.1-.88a5.15,5.15,0,0,1-.56.5,3,3,0,0,1-.58.37,2.78,2.78,0,0,1-.65.23,3.22,3.22,0,0,1-.78.08,2.24,2.24,0,0,1-.68-.1,1.73,1.73,0,0,1-.58-.32,1.45,1.45,0,0,1-.41-.55,1.78,1.78,0,0,1-.16-.8,1.41,1.41,0,0,1,.25-.81,2,2,0,0,1,.77-.64,5.05,5.05,0,0,1,1.36-.44,12,12,0,0,1,2-.2v-.71a2.32,2.32,0,0,0-.41-1.47,1.48,1.48,0,0,0-1.22-.51,2.11,2.11,0,0,0-.84.14,2.7,2.7,0,0,0-.59.3l-.4.3a.43.43,0,0,1-.25.14.24.24,0,0,1-.21-.12l-.11-.2a3.92,3.92,0,0,1,1.13-.82,3.18,3.18,0,0,1,1.34-.27,2.53,2.53,0,0,1,1,.17,1.78,1.78,0,0,1,.69.51,2.2,2.2,0,0,1,.41.79,3.74,3.74,0,0,1,.14,1v4.46ZM60.34,37a2.75,2.75,0,0,0,.73-.09,2.86,2.86,0,0,0,.62-.24,3.23,3.23,0,0,0,.54-.37c.16-.14.33-.3.49-.46V34.06a12.46,12.46,0,0,0-1.69.15,4.63,4.63,0,0,0-1.16.33,1.76,1.76,0,0,0-.68.49,1.08,1.08,0,0,0-.22.65,1.4,1.4,0,0,0,.12.6,1,1,0,0,0,.3.41,1.14,1.14,0,0,0,.43.24A1.82,1.82,0,0,0,60.34,37Z"/><path class="cls-3" d="M65.42,37.37V30.52h.36a.19.19,0,0,1,.21.17l.06,1a4.4,4.4,0,0,1,.43-.52,3,3,0,0,1,.48-.4,2.37,2.37,0,0,1,.56-.26,2,2,0,0,1,.61-.09,1.65,1.65,0,0,1,1.2.43,2.31,2.31,0,0,1,.61,1.22,2.31,2.31,0,0,1,.35-.74,1.9,1.9,0,0,1,.51-.51,2.06,2.06,0,0,1,.63-.31,2.69,2.69,0,0,1,.7-.09,2.38,2.38,0,0,1,.91.16,1.92,1.92,0,0,1,.69.5,2.22,2.22,0,0,1,.44.82,3.7,3.7,0,0,1,.15,1.1v4.38h-.65V33a2.35,2.35,0,0,0-.44-1.53A1.49,1.49,0,0,0,72,30.93a1.72,1.72,0,0,0-.68.13,1.65,1.65,0,0,0-.58.39,1.88,1.88,0,0,0-.4.64,2.5,2.5,0,0,0-.15.9v4.38h-.66V33a2.47,2.47,0,0,0-.4-1.53A1.36,1.36,0,0,0,68,30.93a1.75,1.75,0,0,0-1,.33,3.21,3.21,0,0,0-.85.93v5.18Z"/><path class="cls-3" d="M76.39,39.8V30.52h.36a.29.29,0,0,1,.14,0,.16.16,0,0,1,.06.14L77,31.75a3.86,3.86,0,0,1,1.07-1,2.64,2.64,0,0,1,1.37-.36,2.4,2.4,0,0,1,2,.87,4.15,4.15,0,0,1,.7,2.63,4.51,4.51,0,0,1-.2,1.4,3.43,3.43,0,0,1-.57,1.13,2.76,2.76,0,0,1-.93.76,2.9,2.9,0,0,1-1.28.27,2.71,2.71,0,0,1-1.22-.25,2.54,2.54,0,0,1-.88-.76V39.8Zm2.87-8.87a2.32,2.32,0,0,0-1.24.35,3.55,3.55,0,0,0-1,1v3.6a2.35,2.35,0,0,0,.87.83,2.44,2.44,0,0,0,1.1.24,2.39,2.39,0,0,0,1.06-.22,2.06,2.06,0,0,0,.76-.62,2.85,2.85,0,0,0,.46-1,4.83,4.83,0,0,0,.16-1.24,3.61,3.61,0,0,0-.57-2.25A1.92,1.92,0,0,0,79.26,30.93Z"/><path class="cls-3" d="M84.61,27.35v10H84v-10Z"/><path class="cls-3" d="M89.62,30.41a2.9,2.9,0,0,1,1.07.19,2.41,2.41,0,0,1,.85.59,2.75,2.75,0,0,1,.57.94,3.86,3.86,0,0,1,.2,1.28.37.37,0,0,1,0,.21.2.2,0,0,1-.14.05H87.18v.13a4.62,4.62,0,0,0,.18,1.36,2.76,2.76,0,0,0,.51,1,2.06,2.06,0,0,0,.8.6,2.68,2.68,0,0,0,1,.2,3,3,0,0,0,.9-.12,3.56,3.56,0,0,0,.64-.25,3.77,3.77,0,0,0,.41-.26.48.48,0,0,1,.22-.11.16.16,0,0,1,.14.07l.17.22a1.82,1.82,0,0,1-.43.39,3.46,3.46,0,0,1-.61.3,4.69,4.69,0,0,1-.72.21,3.91,3.91,0,0,1-.76.07,3.37,3.37,0,0,1-1.29-.24,2.81,2.81,0,0,1-1-.72,3.16,3.16,0,0,1-.64-1.14,5,5,0,0,1-.23-1.56,4.26,4.26,0,0,1,.21-1.36,3.21,3.21,0,0,1,.61-1.07,2.77,2.77,0,0,1,1-.71A3.19,3.19,0,0,1,89.62,30.41Zm0,.48a2.55,2.55,0,0,0-.95.17,2.23,2.23,0,0,0-.73.47,2.44,2.44,0,0,0-.49.75,3.21,3.21,0,0,0-.25,1h4.51a3,3,0,0,0-.15-1,2.15,2.15,0,0,0-.43-.74,1.71,1.71,0,0,0-.66-.46A2.15,2.15,0,0,0,89.63,30.89Z"/><path class="cls-3" d="M97.85,31.37a.16.16,0,0,1-.15.1.37.37,0,0,1-.2-.09,2.48,2.48,0,0,0-.31-.19,2.91,2.91,0,0,0-.49-.2,2.75,2.75,0,0,0-.7-.08,2,2,0,0,0-.67.1,1.91,1.91,0,0,0-.53.29,1.37,1.37,0,0,0-.34.42,1,1,0,0,0-.12.49.85.85,0,0,0,.17.54,1.4,1.4,0,0,0,.43.36,4.3,4.3,0,0,0,.61.27l.7.22c.24.07.47.15.7.24a2.73,2.73,0,0,1,.61.33,1.71,1.71,0,0,1,.44.49,1.43,1.43,0,0,1,.16.71,2.12,2.12,0,0,1-.16.83,1.85,1.85,0,0,1-.47.67,2.24,2.24,0,0,1-.75.45,3,3,0,0,1-1,.16,3.13,3.13,0,0,1-1.25-.23,3.42,3.42,0,0,1-.94-.6l.16-.24.08-.08a.16.16,0,0,1,.11,0,.38.38,0,0,1,.22.11,2.12,2.12,0,0,0,.35.24,2.3,2.3,0,0,0,.52.24,2.46,2.46,0,0,0,.77.11,2.26,2.26,0,0,0,.77-.12,1.58,1.58,0,0,0,.55-.33,1.29,1.29,0,0,0,.33-.48,1.52,1.52,0,0,0,.12-.59,1,1,0,0,0-.17-.58,1.32,1.32,0,0,0-.43-.38,2.62,2.62,0,0,0-.61-.27l-.7-.22a7.39,7.39,0,0,1-.71-.24,3,3,0,0,1-.61-.33,1.67,1.67,0,0,1-.43-.49,1.41,1.41,0,0,1-.17-.71,1.67,1.67,0,0,1,.16-.7,1.89,1.89,0,0,1,.45-.6,2.28,2.28,0,0,1,.72-.4,2.77,2.77,0,0,1,.94-.15,3.15,3.15,0,0,1,1.11.18,2.73,2.73,0,0,1,.9.55Z"/><path class="cls-3" d="M107.52,37.37a.18.18,0,0,1-.19-.18l-.07-1.08a3.86,3.86,0,0,1-1.07,1,2.64,2.64,0,0,1-1.37.36,2.4,2.4,0,0,1-2-.87,4.15,4.15,0,0,1-.71-2.63,4.83,4.83,0,0,1,.2-1.4,3.18,3.18,0,0,1,.58-1.13,2.69,2.69,0,0,1,2.22-1,2.57,2.57,0,0,1,1.21.26,2.51,2.51,0,0,1,.88.75V27.35h.65v10ZM105,36.93a2.29,2.29,0,0,0,1.23-.35,3.54,3.54,0,0,0,1-1V32a2.24,2.24,0,0,0-2-1.07,2.36,2.36,0,0,0-1.06.23,2,2,0,0,0-.76.62,2.87,2.87,0,0,0-.47,1,4.84,4.84,0,0,0-.15,1.24,3.61,3.61,0,0,0,.57,2.25A1.92,1.92,0,0,0,105,36.93Z"/><path class="cls-3" d="M111.32,28.15a.59.59,0,0,1,0,.23.64.64,0,0,1-.13.19.53.53,0,0,1-.2.13.46.46,0,0,1-.23.05.52.52,0,0,1-.24-.05.59.59,0,0,1-.19-.13.64.64,0,0,1-.13-.19.59.59,0,0,1-.05-.23.69.69,0,0,1,.05-.24.64.64,0,0,1,.13-.19.59.59,0,0,1,.19-.13.52.52,0,0,1,.24-.05.46.46,0,0,1,.23.05.53.53,0,0,1,.2.13.64.64,0,0,1,.13.19A.69.69,0,0,1,111.32,28.15ZM111,30.52v6.85h-.65V30.52Z"/><path class="cls-3" d="M115.72,30.4a2.78,2.78,0,0,1,.83.11,2.48,2.48,0,0,1,.68.31H119v.23c0,.11-.06.17-.19.18l-1,.08a1.71,1.71,0,0,1,.29.59,2.28,2.28,0,0,1,.11.7,2.19,2.19,0,0,1-.18.9,2.1,2.1,0,0,1-.5.68,2.18,2.18,0,0,1-.77.45,3.11,3.11,0,0,1-1,.16,3.06,3.06,0,0,1-1.08-.18,1.44,1.44,0,0,0-.45.39.76.76,0,0,0-.17.44.55.55,0,0,0,.21.46,1.47,1.47,0,0,0,.55.23,4.19,4.19,0,0,0,.78.09l.89.05a8.46,8.46,0,0,1,.88.08,2.76,2.76,0,0,1,.78.22,1.39,1.39,0,0,1,.55.43,1.22,1.22,0,0,1,.21.74,1.6,1.6,0,0,1-.22.82,2,2,0,0,1-.61.7,3.59,3.59,0,0,1-1,.49,4.26,4.26,0,0,1-1.28.18,4.81,4.81,0,0,1-1.27-.15,3.05,3.05,0,0,1-.91-.4,1.81,1.81,0,0,1-.56-.58,1.47,1.47,0,0,1-.18-.71,1.32,1.32,0,0,1,.36-.93,2.28,2.28,0,0,1,1-.61,1.32,1.32,0,0,1-.55-.34.88.88,0,0,1-.2-.61.8.8,0,0,1,.06-.3,1.2,1.2,0,0,1,.16-.32,1.45,1.45,0,0,1,.27-.29,2.07,2.07,0,0,1,.36-.25,2,2,0,0,1-.76-.75,2.15,2.15,0,0,1-.27-1.09,2.19,2.19,0,0,1,.17-.9,2,2,0,0,1,.5-.7,2.16,2.16,0,0,1,.77-.44A3,3,0,0,1,115.72,30.4Zm2.54,7.43a.79.79,0,0,0-.17-.52,1,1,0,0,0-.45-.3,2.38,2.38,0,0,0-.65-.16c-.25,0-.5-.05-.77-.06l-.81,0a5.72,5.72,0,0,1-.76-.08,3.71,3.71,0,0,0-.49.24,2.28,2.28,0,0,0-.38.3,1.72,1.72,0,0,0-.25.37,1.13,1.13,0,0,0-.09.45,1.1,1.1,0,0,0,.16.56,1.38,1.38,0,0,0,.45.45,2.66,2.66,0,0,0,.74.3,4.25,4.25,0,0,0,1,.11,3.74,3.74,0,0,0,1-.12,3,3,0,0,0,.79-.33,1.69,1.69,0,0,0,.52-.51A1.15,1.15,0,0,0,118.26,37.83Zm-2.54-3.49a2.13,2.13,0,0,0,.78-.13,1.53,1.53,0,0,0,.58-.35,1.46,1.46,0,0,0,.36-.55,1.94,1.94,0,0,0,.12-.7,1.83,1.83,0,0,0-.13-.71,1.42,1.42,0,0,0-.36-.54,1.63,1.63,0,0,0-.58-.36,2.26,2.26,0,0,0-.77-.12,2.37,2.37,0,0,0-.78.12,1.63,1.63,0,0,0-.58.36,1.42,1.42,0,0,0-.36.54,1.83,1.83,0,0,0-.13.71,1.75,1.75,0,0,0,.13.7,1.46,1.46,0,0,0,.36.55,1.61,1.61,0,0,0,.58.35A2.13,2.13,0,0,0,115.72,34.34Z"/><path class="cls-3" d="M121.55,28.15a.59.59,0,0,1,0,.23.67.67,0,0,1-.14.19.5.5,0,0,1-.19.13.47.47,0,0,1-.24.05.46.46,0,0,1-.23-.05.62.62,0,0,1-.32-.32.46.46,0,0,1,0-.23.52.52,0,0,1,0-.24.62.62,0,0,1,.32-.32.46.46,0,0,1,.23-.05.47.47,0,0,1,.24.05.5.5,0,0,1,.19.13.67.67,0,0,1,.14.19A.69.69,0,0,1,121.55,28.15Zm-.29,2.37v6.85h-.66V30.52Z"/><path class="cls-3" d="M125.55,37.48a1.5,1.5,0,0,1-1.08-.38,1.63,1.63,0,0,1-.39-1.2V31.22h-1a.28.28,0,0,1-.13,0,.16.16,0,0,1,0-.12V30.8l1.17-.08.16-2.45a.22.22,0,0,1,0-.11.17.17,0,0,1,.12-.05h.31v2.62h2.15v.49h-2.15v4.65a1.35,1.35,0,0,0,.07.48,1,1,0,0,0,.2.34.73.73,0,0,0,.3.19,1.26,1.26,0,0,0,.8,0,1.79,1.79,0,0,0,.31-.16,1,1,0,0,0,.21-.16c.06,0,.1-.07.13-.07a.15.15,0,0,1,.11.07l.18.29a1.92,1.92,0,0,1-.66.47A2.21,2.21,0,0,1,125.55,37.48Z"/><path class="cls-3" d="M133,37.37a.23.23,0,0,1-.25-.19l-.1-.88c-.19.19-.38.35-.56.5a3.33,3.33,0,0,1-.58.37,2.86,2.86,0,0,1-.66.23,3.09,3.09,0,0,1-.77.08,2.24,2.24,0,0,1-.68-.1,1.77,1.77,0,0,1-.59-.32,1.56,1.56,0,0,1-.41-.55,1.94,1.94,0,0,1-.15-.8,1.41,1.41,0,0,1,.25-.81,2,2,0,0,1,.77-.64,4.82,4.82,0,0,1,1.36-.44,11.9,11.9,0,0,1,2-.2v-.71a2.26,2.26,0,0,0-.41-1.47,1.46,1.46,0,0,0-1.21-.51,2.16,2.16,0,0,0-.85.14,3,3,0,0,0-.59.3,3.86,3.86,0,0,0-.39.3.46.46,0,0,1-.25.14.21.21,0,0,1-.21-.12l-.12-.2a4.21,4.21,0,0,1,1.13-.82A3.25,3.25,0,0,1,131,30.4a2.61,2.61,0,0,1,1,.17,1.86,1.86,0,0,1,.69.51,2.37,2.37,0,0,1,.41.79,3.75,3.75,0,0,1,.13,1v4.46ZM130.22,37a2.81,2.81,0,0,0,.73-.09,3.07,3.07,0,0,0,.62-.24,2.8,2.8,0,0,0,.53-.37c.17-.14.33-.3.49-.46V34.06a12.46,12.46,0,0,0-1.68.15,4.85,4.85,0,0,0-1.17.33,1.72,1.72,0,0,0-.67.49,1,1,0,0,0-.22.65,1.4,1.4,0,0,0,.12.6,1,1,0,0,0,.3.41,1.07,1.07,0,0,0,.43.24A1.77,1.77,0,0,0,130.22,37Z"/><path class="cls-3" d="M136.44,28.15a.59.59,0,0,1-.05.23.67.67,0,0,1-.14.19.5.5,0,0,1-.19.13.46.46,0,0,1-.23.05.47.47,0,0,1-.24-.05.62.62,0,0,1-.32-.32.46.46,0,0,1-.05-.23.52.52,0,0,1,.05-.24.62.62,0,0,1,.32-.32.47.47,0,0,1,.24-.05.46.46,0,0,1,.23.05.5.5,0,0,1,.19.13.67.67,0,0,1,.14.19A.69.69,0,0,1,136.44,28.15Zm-.29,2.37v6.85h-.66V30.52Z"/><path class="cls-3" d="M142.35,31.37a.16.16,0,0,1-.15.1.37.37,0,0,1-.2-.09,2.48,2.48,0,0,0-.31-.19,3.31,3.31,0,0,0-.49-.2,2.75,2.75,0,0,0-.7-.08,2.15,2.15,0,0,0-.68.1,2,2,0,0,0-.52.29,1.37,1.37,0,0,0-.34.42,1,1,0,0,0-.12.49.85.85,0,0,0,.17.54,1.4,1.4,0,0,0,.43.36,3.85,3.85,0,0,0,.61.27l.7.22c.24.07.47.15.7.24a2.73,2.73,0,0,1,.61.33,1.67,1.67,0,0,1,.43.49,1.33,1.33,0,0,1,.17.71,2.12,2.12,0,0,1-.16.83,2,2,0,0,1-.47.67,2.24,2.24,0,0,1-.75.45,3,3,0,0,1-1,.16,3.13,3.13,0,0,1-1.25-.23,3.42,3.42,0,0,1-.94-.6l.16-.24.08-.08a.16.16,0,0,1,.11,0,.38.38,0,0,1,.22.11,2,2,0,0,0,.34.24,2.39,2.39,0,0,0,.53.24,2.46,2.46,0,0,0,.77.11,2.26,2.26,0,0,0,.77-.12,1.58,1.58,0,0,0,.55-.33,1.29,1.29,0,0,0,.33-.48,1.52,1.52,0,0,0,.12-.59,1,1,0,0,0-.17-.58,1.32,1.32,0,0,0-.43-.38,2.62,2.62,0,0,0-.61-.27l-.7-.22a7.39,7.39,0,0,1-.71-.24,2.73,2.73,0,0,1-.61-.33,1.67,1.67,0,0,1-.43-.49,1.41,1.41,0,0,1-.17-.71,1.67,1.67,0,0,1,.16-.7,1.89,1.89,0,0,1,.45-.6,2.28,2.28,0,0,1,.72-.4,2.77,2.77,0,0,1,.94-.15,3.15,3.15,0,0,1,1.11.18,2.59,2.59,0,0,1,.89.55Z"/><path class="cls-3" d="M62.44,10.44a1.41,1.41,0,0,1-.36.42.84.84,0,0,1-.49.14,1.2,1.2,0,0,1-.57-.17l-.7-.38a5.55,5.55,0,0,0-.88-.37,3.58,3.58,0,0,0-1.13-.17,2.47,2.47,0,0,0-1.64.47,1.57,1.57,0,0,0-.53,1.26,1.17,1.17,0,0,0,.32.85,2.75,2.75,0,0,0,.85.57,10.15,10.15,0,0,0,1.2.45q.68.2,1.38.45a11.86,11.86,0,0,1,1.38.58,4.46,4.46,0,0,1,1.2.86,3.94,3.94,0,0,1,.85,1.26,4.63,4.63,0,0,1,.32,1.8,5.86,5.86,0,0,1-.4,2.18,5.07,5.07,0,0,1-1.17,1.77,5.48,5.48,0,0,1-1.9,1.19,7,7,0,0,1-2.56.43,8.11,8.11,0,0,1-1.6-.16,10.46,10.46,0,0,1-1.57-.45,9,9,0,0,1-1.43-.7,6,6,0,0,1-1.17-.9L53,20a1,1,0,0,1,.36-.33,1,1,0,0,1,.5-.13,1.3,1.3,0,0,1,.7.22c.23.15.5.31.79.48a6.59,6.59,0,0,0,1,.49,3.73,3.73,0,0,0,1.36.22,2.59,2.59,0,0,0,1.65-.47A1.78,1.78,0,0,0,60,19a1.43,1.43,0,0,0-.32-1,2.47,2.47,0,0,0-.85-.61A7.58,7.58,0,0,0,57.6,17c-.44-.12-.9-.26-1.37-.41A11.66,11.66,0,0,1,54.85,16a4.39,4.39,0,0,1-1.19-.87,4.21,4.21,0,0,1-.85-1.34,5.27,5.27,0,0,1-.32-2A4.74,4.74,0,0,1,54,8.39,5.41,5.41,0,0,1,55.8,7.26a6.75,6.75,0,0,1,2.46-.42A9.33,9.33,0,0,1,59.77,7a8,8,0,0,1,2.62.92,5.6,5.6,0,0,1,1,.75Z"/><path class="cls-3" d="M81.24,23.85h-3a1.39,1.39,0,0,1-.84-.24,1.28,1.28,0,0,1-.46-.6l-1-2.94h-6.4l-1,2.94a1.34,1.34,0,0,1-1.27.84h-3L70.73,7h4ZM70.43,17.42H75l-1.55-4.61-.35-1c-.14-.4-.27-.83-.4-1.29-.12.47-.25.9-.38,1.3s-.25.75-.37,1Z"/><path class="cls-3" d="M91.65,17.07c.14.32.28.64.41,1q.19-.51.42-1t.45-.93l4.32-8.51a1.34,1.34,0,0,1,.23-.34.84.84,0,0,1,.28-.18.9.9,0,0,1,.34,0h3.42V23.85H98.08V14.17c0-.47,0-1,.07-1.52L93.69,21.3a1.44,1.44,0,0,1-.56.61,1.52,1.52,0,0,1-.8.21H91.8a1.58,1.58,0,0,1-.81-.21,1.51,1.51,0,0,1-.56-.61L86,12.64c0,.27.06.53.07.8s0,.51,0,.73v9.68H82.6V7H86a.9.9,0,0,1,.34,0,.8.8,0,0,1,.27.18,1.66,1.66,0,0,1,.24.34l4.33,8.55C91.36,16.45,91.51,16.75,91.65,17.07Z"/><path class="cls-3" d="M108.19,18.23v5.62h-3.9V7h5.94a9.51,9.51,0,0,1,3,.43,5.73,5.73,0,0,1,2.1,1.16,4.48,4.48,0,0,1,1.22,1.74,5.93,5.93,0,0,1,.39,2.17,6.37,6.37,0,0,1-.4,2.31,4.59,4.59,0,0,1-1.24,1.8,5.75,5.75,0,0,1-2.1,1.17,9.4,9.4,0,0,1-3,.43Zm0-3h2a2.85,2.85,0,0,0,2.19-.73,2.86,2.86,0,0,0,.67-2,3.21,3.21,0,0,0-.17-1,2,2,0,0,0-.53-.81,2.25,2.25,0,0,0-.89-.53,4,4,0,0,0-1.27-.18h-2Z"/><path class="cls-3" d="M122.93,20.73h6.24v3.12H119V7h3.9Z"/><path class="cls-3" d="M141.85,7v3h-6.91V14h5.29v2.89h-5.29v4h6.91v3H131V7Z"/><path class="cls-3" d="M157.9,10.44a1.42,1.42,0,0,1-.37.42A.81.81,0,0,1,157,11a1.26,1.26,0,0,1-.57-.17l-.69-.38a5.3,5.3,0,0,0-.89-.37,3.53,3.53,0,0,0-1.13-.17,2.44,2.44,0,0,0-1.63.47,1.58,1.58,0,0,0-.54,1.26,1.18,1.18,0,0,0,.33.85,2.69,2.69,0,0,0,.84.57,10.35,10.35,0,0,0,1.21.45q.67.2,1.38.45a12.63,12.63,0,0,1,1.38.58,4.46,4.46,0,0,1,1.2.86,3.94,3.94,0,0,1,.85,1.26,4.63,4.63,0,0,1,.32,1.8,5.87,5.87,0,0,1-.41,2.18,5.07,5.07,0,0,1-1.17,1.77,5.35,5.35,0,0,1-1.89,1.19,7.09,7.09,0,0,1-2.56.43,8,8,0,0,1-1.6-.16,10.58,10.58,0,0,1-1.58-.45,10,10,0,0,1-1.43-.7,6.27,6.27,0,0,1-1.16-.9L148.45,20a1,1,0,0,1,.86-.46,1.25,1.25,0,0,1,.69.22c.24.15.5.31.8.48a6.92,6.92,0,0,0,1,.49,3.79,3.79,0,0,0,1.37.22,2.63,2.63,0,0,0,1.65-.47,1.78,1.78,0,0,0,.59-1.48,1.38,1.38,0,0,0-.33-1,2.38,2.38,0,0,0-.85-.61,7.45,7.45,0,0,0-1.19-.43c-.45-.12-.91-.26-1.38-.41a11.52,11.52,0,0,1-1.37-.55,4.24,4.24,0,0,1-1.19-.87,3.89,3.89,0,0,1-.85-1.34,5.26,5.26,0,0,1-.33-2,4.79,4.79,0,0,1,.38-1.85,4.88,4.88,0,0,1,1.12-1.6,5.56,5.56,0,0,1,1.82-1.13,6.67,6.67,0,0,1,2.46-.42,9.2,9.2,0,0,1,1.5.12,7.76,7.76,0,0,1,1.4.36,8.57,8.57,0,0,1,1.23.56,5.6,5.6,0,0,1,1,.75Z"/><path class="cls-3" d="M173.26,7v3.1h-4.74V23.85h-3.9V10.12h-4.74V7Z"/><path class="cls-3" d="M190.79,15.43a9.06,9.06,0,0,1-.63,3.4,8,8,0,0,1-4.53,4.55,10.16,10.16,0,0,1-7.15,0,8,8,0,0,1-4.55-4.55,9.06,9.06,0,0,1-.63-3.4,9,9,0,0,1,.63-3.39,8,8,0,0,1,1.78-2.73,8.27,8.27,0,0,1,2.77-1.81,10,10,0,0,1,7.15,0,8.51,8.51,0,0,1,2.76,1.82,8.14,8.14,0,0,1,1.77,2.73A9,9,0,0,1,190.79,15.43Zm-4,0a7.5,7.5,0,0,0-.32-2.25,4.92,4.92,0,0,0-.93-1.69,4.1,4.1,0,0,0-1.49-1.06,5,5,0,0,0-2-.37,5.13,5.13,0,0,0-2,.37,4.1,4.1,0,0,0-1.49,1.06,4.92,4.92,0,0,0-.93,1.69,7.5,7.5,0,0,0-.32,2.25,7.52,7.52,0,0,0,.32,2.26,4.92,4.92,0,0,0,.93,1.69A4.1,4.1,0,0,0,180,20.44a5.31,5.31,0,0,0,2,.36,5.19,5.19,0,0,0,2-.36,4.1,4.1,0,0,0,1.49-1.06,4.92,4.92,0,0,0,.93-1.69A7.52,7.52,0,0,0,186.79,15.43Z"/><path class="cls-3" d="M196.56,17.62v6.23h-3.9V7h5.47a11.15,11.15,0,0,1,3.11.38,6,6,0,0,1,2.11,1A4,4,0,0,1,204.53,10a5.13,5.13,0,0,1,.37,2,5.23,5.23,0,0,1-.22,1.55,4.81,4.81,0,0,1-.65,1.35A5.3,5.3,0,0,1,203,16a5.55,5.55,0,0,1-1.44.79,4.44,4.44,0,0,1,.73.49,2.88,2.88,0,0,1,.59.7l3.58,5.86h-3.53a1.51,1.51,0,0,1-1.41-.74l-2.79-4.88a1.26,1.26,0,0,0-.44-.47,1.47,1.47,0,0,0-.7-.14Zm0-2.69h1.57a3.9,3.9,0,0,0,1.36-.2,2.42,2.42,0,0,0,.92-.56,2.28,2.28,0,0,0,.52-.84,3.37,3.37,0,0,0,.16-1,2.16,2.16,0,0,0-.72-1.73,3.37,3.37,0,0,0-2.24-.62h-1.57Z"/><path class="cls-3" d="M218.85,7v3h-6.91V14h5.29v2.89h-5.29v4h6.91v3H208V7Z"/></g></g></svg>