<svg xmlns="http://www.w3.org/2000/svg" viewBox="0 0 43.56 38.98"><defs><style>.cls-1{fill:#e51e27;}.cls-2{fill:#fff;stroke:#e51e27;stroke-miterlimit:10;stroke-width:0.98px;}</style></defs><title>Asset 17</title><g id="Layer_2" data-name="Layer 2"><g id="Layer_1-2" data-name="Layer 1"><circle class="cls-1" cx="25.93" cy="17.62" r="17.62"/><path class="cls-2" d="M4.64,38.49H.83L17.55,8.55a1.93,1.93,0,0,1,1.69-1h4L6.55,37.37A2.2,2.2,0,0,1,4.64,38.49Z"/><path class="cls-2" d="M12.92,38.49H9L22.26,14.92a1.86,1.86,0,0,1,1.64-1h4L14.62,37.5A2,2,0,0,1,12.92,38.49Z"/><path class="cls-2" d="M20.88,38.49H17L26.6,21.34a1.93,1.93,0,0,1,1.67-1h4L22.61,37.48A2,2,0,0,1,20.88,38.49Z"/></g></g></svg>