<svg xmlns="http://www.w3.org/2000/svg" viewBox="0 0 218.01 39.93"><defs><style>.cls-1{fill:#fff;}.cls-2{fill:#231f20;}</style></defs><title>Asset 18</title><g id="Layer_2" data-name="Layer 2"><g id="Layer_1-2" data-name="Layer 1"><circle class="cls-1" cx="25.1" cy="17.62" r="17.62"/><path class="cls-2" d="M3.81,38.49H0L16.72,8.55a1.92,1.92,0,0,1,1.69-1h3.95L5.72,37.37A2.2,2.2,0,0,1,3.81,38.49Z"/><path class="cls-2" d="M12.08,38.49H8.13L21.42,14.92a1.87,1.87,0,0,1,1.64-1h4L13.78,37.5A1.94,1.94,0,0,1,12.08,38.49Z"/><path class="cls-2" d="M20,38.49H16.12l9.65-17.15a1.9,1.9,0,0,1,1.66-1h4L21.78,37.48A2,2,0,0,1,20,38.49Z"/><path class="cls-1" d="M55.74,31.37a.19.19,0,0,1-.16.1.35.35,0,0,1-.19-.09,2.7,2.7,0,0,0-.32-.19,2.78,2.78,0,0,0-.48-.2,2.81,2.81,0,0,0-.7-.08,2.07,2.07,0,0,0-.68.1,1.85,1.85,0,0,0-.52.29,1.24,1.24,0,0,0-.34.42,1,1,0,0,0-.12.49.85.85,0,0,0,.16.54,1.44,1.44,0,0,0,.44.36,3.85,3.85,0,0,0,.61.27l.7.22c.24.07.47.15.7.24a3,3,0,0,1,.61.33,1.67,1.67,0,0,1,.43.49,1.43,1.43,0,0,1,.17.71,2.12,2.12,0,0,1-.17.83,1.83,1.83,0,0,1-.46.67,2.29,2.29,0,0,1-.76.45,3,3,0,0,1-1,.16,3.17,3.17,0,0,1-1.25-.23,3.23,3.23,0,0,1-.93-.6l.16-.24a.27.27,0,0,1,.07-.08.21.21,0,0,1,.12,0,.41.41,0,0,1,.22.11,2,2,0,0,0,.34.24,2.3,2.3,0,0,0,.52.24,2.48,2.48,0,0,0,.78.11,2.2,2.2,0,0,0,.76-.12,1.5,1.5,0,0,0,.55-.33,1.45,1.45,0,0,0,.34-.48,1.71,1.71,0,0,0,.11-.59,1,1,0,0,0-.16-.58,1.36,1.36,0,0,0-.44-.38,2.62,2.62,0,0,0-.61-.27l-.7-.22c-.24-.07-.47-.15-.7-.24a2.73,2.73,0,0,1-.61-.33,1.71,1.71,0,0,1-.44-.49,1.41,1.41,0,0,1-.16-.71,1.53,1.53,0,0,1,.16-.7,1.64,1.64,0,0,1,.45-.6,2.12,2.12,0,0,1,.71-.4,2.83,2.83,0,0,1,1-.15,3.23,3.23,0,0,1,1.11.18,2.69,2.69,0,0,1,.89.55Z"/><path class="cls-1" d="M62.26,37.37a.23.23,0,0,1-.25-.19l-.1-.88c-.19.19-.38.35-.56.5a3.33,3.33,0,0,1-.58.37,2.86,2.86,0,0,1-.66.23,3.09,3.09,0,0,1-.77.08,2.24,2.24,0,0,1-.68-.1,1.77,1.77,0,0,1-.59-.32,1.45,1.45,0,0,1-.41-.55,1.94,1.94,0,0,1-.15-.8,1.47,1.47,0,0,1,.24-.81,2.13,2.13,0,0,1,.78-.64,4.82,4.82,0,0,1,1.36-.44,11.9,11.9,0,0,1,2-.2v-.71a2.26,2.26,0,0,0-.41-1.47,1.46,1.46,0,0,0-1.21-.51,2.16,2.16,0,0,0-.85.14,3,3,0,0,0-.59.3,3.86,3.86,0,0,0-.39.3.46.46,0,0,1-.25.14.21.21,0,0,1-.21-.12l-.12-.2A4.21,4.21,0,0,1,59,30.67a3.21,3.21,0,0,1,1.34-.27,2.63,2.63,0,0,1,1,.17,1.86,1.86,0,0,1,.69.51,2.37,2.37,0,0,1,.41.79,3.75,3.75,0,0,1,.13,1v4.46ZM59.5,37a2.83,2.83,0,0,0,.74-.09,3.07,3.07,0,0,0,.62-.24,2.8,2.8,0,0,0,.53-.37c.17-.14.33-.3.49-.46V34.06a12.46,12.46,0,0,0-1.68.15,4.85,4.85,0,0,0-1.17.33,1.72,1.72,0,0,0-.67.49,1,1,0,0,0-.22.65,1.57,1.57,0,0,0,.11.6,1.28,1.28,0,0,0,.3.41,1.18,1.18,0,0,0,.44.24A1.75,1.75,0,0,0,59.5,37Z"/><path class="cls-1" d="M64.59,37.37V30.52H65a.19.19,0,0,1,.21.17l.06,1a4.33,4.33,0,0,1,.42-.52,3.58,3.58,0,0,1,.49-.4,2.31,2.31,0,0,1,.55-.26,2.11,2.11,0,0,1,.62-.09,1.65,1.65,0,0,1,1.2.43,2.24,2.24,0,0,1,.6,1.22,2.54,2.54,0,0,1,.35-.74,2.06,2.06,0,0,1,.51-.51,2.31,2.31,0,0,1,.63-.31,2.74,2.74,0,0,1,.7-.09,2.43,2.43,0,0,1,.92.16,1.92,1.92,0,0,1,.69.5,2.21,2.21,0,0,1,.43.82,3.4,3.4,0,0,1,.16,1.1v4.38h-.66V33a2.34,2.34,0,0,0-.43-1.53,1.5,1.5,0,0,0-1.24-.53,1.8,1.8,0,0,0-.69.13,1.74,1.74,0,0,0-.58.39,1.88,1.88,0,0,0-.4.64,2.5,2.5,0,0,0-.15.9v4.38h-.65V33a2.47,2.47,0,0,0-.4-1.53,1.37,1.37,0,0,0-1.16-.53,1.78,1.78,0,0,0-1,.33,3.35,3.35,0,0,0-.85.93v5.18Z"/><path class="cls-1" d="M75.55,39.8V30.52h.36a.33.33,0,0,1,.15,0,.23.23,0,0,1,.06.14l.06,1.06a3.82,3.82,0,0,1,1.06-1,2.67,2.67,0,0,1,1.37-.36,2.39,2.39,0,0,1,2,.87,4.15,4.15,0,0,1,.71,2.63,4.83,4.83,0,0,1-.2,1.4,3.27,3.27,0,0,1-.58,1.13,2.76,2.76,0,0,1-.93.76,2.9,2.9,0,0,1-1.28.27,2.67,2.67,0,0,1-1.21-.25,2.54,2.54,0,0,1-.88-.76V39.8Zm2.88-8.87a2.3,2.3,0,0,0-1.24.35,3.43,3.43,0,0,0-1,1v3.6a2.35,2.35,0,0,0,.87.83,2.39,2.39,0,0,0,1.09.24,2.33,2.33,0,0,0,1.06-.22A1.92,1.92,0,0,0,80,36.1a2.87,2.87,0,0,0,.47-1,4.84,4.84,0,0,0,.15-1.24,3.68,3.68,0,0,0-.56-2.25A2,2,0,0,0,78.43,30.93Z"/><path class="cls-1" d="M83.77,27.35v10h-.65v-10Z"/><path class="cls-1" d="M88.78,30.41a2.83,2.83,0,0,1,1.07.19,2.45,2.45,0,0,1,.86.59,2.59,2.59,0,0,1,.56.94,3.62,3.62,0,0,1,.21,1.28.36.36,0,0,1,0,.21.18.18,0,0,1-.14.05h-5v.13a4.62,4.62,0,0,0,.18,1.36,2.76,2.76,0,0,0,.51,1,2.14,2.14,0,0,0,.8.6,2.69,2.69,0,0,0,1,.2,3,3,0,0,0,.89-.12,3.05,3.05,0,0,0,.64-.25,3.77,3.77,0,0,0,.41-.26A.53.53,0,0,1,91,36.2a.15.15,0,0,1,.14.07l.18.22a1.88,1.88,0,0,1-.44.39,3.36,3.36,0,0,1-.6.3,5.46,5.46,0,0,1-.72.21,4,4,0,0,1-.77.07,3.28,3.28,0,0,1-1.28-.24,2.64,2.64,0,0,1-1-.72,3.34,3.34,0,0,1-.65-1.14,5,5,0,0,1-.22-1.56,4.26,4.26,0,0,1,.21-1.36,3.05,3.05,0,0,1,.61-1.07,2.68,2.68,0,0,1,1-.71A3.17,3.17,0,0,1,88.78,30.41Zm0,.48a2.59,2.59,0,0,0-1,.17,2.09,2.09,0,0,0-.72.47,2.46,2.46,0,0,0-.5.75,3.54,3.54,0,0,0-.25,1h4.51a3,3,0,0,0-.15-1,2.14,2.14,0,0,0-.42-.74,1.88,1.88,0,0,0-.66-.46A2.2,2.2,0,0,0,88.79,30.89Z"/><path class="cls-1" d="M97,31.37a.19.19,0,0,1-.15.1.35.35,0,0,1-.2-.09,2.7,2.7,0,0,0-.32-.19,2.78,2.78,0,0,0-.48-.2,2.75,2.75,0,0,0-.7-.08,2.11,2.11,0,0,0-.68.1,1.85,1.85,0,0,0-.52.29,1.24,1.24,0,0,0-.34.42,1,1,0,0,0-.12.49.85.85,0,0,0,.16.54,1.44,1.44,0,0,0,.44.36,3.85,3.85,0,0,0,.61.27l.7.22c.24.07.47.15.7.24a2.73,2.73,0,0,1,.61.33,1.67,1.67,0,0,1,.43.49,1.43,1.43,0,0,1,.17.71,2.12,2.12,0,0,1-.17.83,1.83,1.83,0,0,1-.46.67,2.29,2.29,0,0,1-.76.45,3,3,0,0,1-1,.16,3.17,3.17,0,0,1-1.25-.23,3.37,3.37,0,0,1-.93-.6l.16-.24a.27.27,0,0,1,.07-.08.21.21,0,0,1,.12,0,.41.41,0,0,1,.22.11,2,2,0,0,0,.34.24,2.52,2.52,0,0,0,.52.24A2.48,2.48,0,0,0,95,37a2.2,2.2,0,0,0,.76-.12,1.63,1.63,0,0,0,.56-.33,1.58,1.58,0,0,0,.33-.48,1.51,1.51,0,0,0,.11-.59,1,1,0,0,0-.16-.58,1.36,1.36,0,0,0-.44-.38,2.62,2.62,0,0,0-.61-.27L94.8,34c-.24-.07-.47-.15-.7-.24a2.73,2.73,0,0,1-.61-.33,1.71,1.71,0,0,1-.44-.49,1.41,1.41,0,0,1-.16-.71,1.53,1.53,0,0,1,.16-.7,1.64,1.64,0,0,1,.45-.6,2.12,2.12,0,0,1,.71-.4,2.83,2.83,0,0,1,1-.15,3.19,3.19,0,0,1,1.11.18,2.69,2.69,0,0,1,.89.55Z"/><path class="cls-1" d="M106.69,37.37a.18.18,0,0,1-.2-.18l-.07-1.08a3.82,3.82,0,0,1-1.06,1,2.67,2.67,0,0,1-1.37.36,2.39,2.39,0,0,1-2-.87,4.09,4.09,0,0,1-.71-2.63,4.51,4.51,0,0,1,.2-1.4,3.18,3.18,0,0,1,.58-1.13,2.76,2.76,0,0,1,.93-.76,2.9,2.9,0,0,1,1.28-.27,2.54,2.54,0,0,1,1.21.26,2.42,2.42,0,0,1,.88.75V27.35h.66v10Zm-2.52-.44a2.3,2.3,0,0,0,1.24-.35,3.51,3.51,0,0,0,1-1V32a2.33,2.33,0,0,0-.88-.82,2.39,2.39,0,0,0-1.08-.25,2.33,2.33,0,0,0-1.06.23,2,2,0,0,0-.77.62,2.85,2.85,0,0,0-.46,1A4.83,4.83,0,0,0,102,34a3.61,3.61,0,0,0,.57,2.25A2,2,0,0,0,104.17,36.93Z"/><path class="cls-1" d="M110.49,28.15a.59.59,0,0,1,0,.23.67.67,0,0,1-.14.19.61.61,0,0,1-.43.18.46.46,0,0,1-.23-.05.62.62,0,0,1-.32-.32.46.46,0,0,1,0-.23.52.52,0,0,1,0-.24.62.62,0,0,1,.32-.32.46.46,0,0,1,.23-.05.61.61,0,0,1,.43.18.67.67,0,0,1,.14.19A.69.69,0,0,1,110.49,28.15Zm-.29,2.37v6.85h-.66V30.52Z"/><path class="cls-1" d="M114.88,30.4a2.73,2.73,0,0,1,.83.11,2.42,2.42,0,0,1,.69.31h1.76v.23c0,.11-.07.17-.2.18l-1,.08a1.93,1.93,0,0,1,.3.59,2.28,2.28,0,0,1,.1.7,2.19,2.19,0,0,1-.18.9,2,2,0,0,1-.5.68,2.22,2.22,0,0,1-.76.45,3.13,3.13,0,0,1-1,.16,3,3,0,0,1-1.07-.18,1.49,1.49,0,0,0-.46.39.75.75,0,0,0-.16.44.55.55,0,0,0,.21.46,1.42,1.42,0,0,0,.54.23,4.41,4.41,0,0,0,.78.09l.89.05a8.65,8.65,0,0,1,.89.08,3,3,0,0,1,.78.22,1.39,1.39,0,0,1,.55.43,1.29,1.29,0,0,1,.2.74,1.7,1.7,0,0,1-.21.82,2.05,2.05,0,0,1-.62.7,3.53,3.53,0,0,1-1,.49,4.26,4.26,0,0,1-1.28.18,4.76,4.76,0,0,1-1.27-.15,3,3,0,0,1-.92-.4,1.77,1.77,0,0,1-.55-.58,1.48,1.48,0,0,1-.19-.71,1.32,1.32,0,0,1,.36-.93,2.32,2.32,0,0,1,1-.61,1.32,1.32,0,0,1-.55-.34.83.83,0,0,1-.2-.61,1,1,0,0,1,0-.3,1.24,1.24,0,0,1,.17-.32,1.75,1.75,0,0,1,.26-.29,3.27,3.27,0,0,1,.36-.25,2.1,2.1,0,0,1-.76-.75,2.15,2.15,0,0,1-.27-1.09,2.19,2.19,0,0,1,.18-.9,2,2,0,0,1,.49-.7,2.2,2.2,0,0,1,.78-.44A2.91,2.91,0,0,1,114.88,30.4Zm2.55,7.43a.79.79,0,0,0-.17-.52,1.19,1.19,0,0,0-.45-.3,2.48,2.48,0,0,0-.65-.16q-.37,0-.78-.06l-.81,0a5.56,5.56,0,0,1-.75-.08,3.19,3.19,0,0,0-.49.24,1.68,1.68,0,0,0-.38.3,1.42,1.42,0,0,0-.25.37,1.13,1.13,0,0,0-.09.45,1.09,1.09,0,0,0,.15.56,1.52,1.52,0,0,0,.46.45,2.59,2.59,0,0,0,.73.3,4.31,4.31,0,0,0,1,.11,3.81,3.81,0,0,0,1-.12,2.78,2.78,0,0,0,.78-.33,1.62,1.62,0,0,0,.53-.51A1.23,1.23,0,0,0,117.43,37.83Zm-2.55-3.49a2.15,2.15,0,0,0,.79-.13,1.61,1.61,0,0,0,.58-.35,1.57,1.57,0,0,0,.35-.55,1.94,1.94,0,0,0,.12-.7,2,2,0,0,0-.12-.71,1.42,1.42,0,0,0-.36-.54,1.63,1.63,0,0,0-.58-.36,2.6,2.6,0,0,0-1.56,0,1.72,1.72,0,0,0-.58.36,1.42,1.42,0,0,0-.36.54,2,2,0,0,0-.12.71,1.94,1.94,0,0,0,.12.7,1.46,1.46,0,0,0,.36.55,1.7,1.7,0,0,0,.58.35A2.13,2.13,0,0,0,114.88,34.34Z"/><path class="cls-1" d="M120.71,28.15a.46.46,0,0,1,0,.23.64.64,0,0,1-.13.19.53.53,0,0,1-.2.13.55.55,0,0,1-.46,0,.53.53,0,0,1-.2-.13.64.64,0,0,1-.13-.19.59.59,0,0,1-.05-.23.69.69,0,0,1,.05-.24.64.64,0,0,1,.13-.19.53.53,0,0,1,.2-.13.55.55,0,0,1,.46,0,.53.53,0,0,1,.2.13.64.64,0,0,1,.13.19A.52.52,0,0,1,120.71,28.15Zm-.29,2.37v6.85h-.65V30.52Z"/><path class="cls-1" d="M124.72,37.48a1.5,1.5,0,0,1-1.09-.38,1.68,1.68,0,0,1-.38-1.2V31.22h-1a.21.21,0,0,1-.12,0,.17.17,0,0,1,0-.12V30.8l1.17-.08.17-2.45a.16.16,0,0,1,0-.11.17.17,0,0,1,.12-.05h.3v2.62h2.16v.49H123.9v4.65a1.34,1.34,0,0,0,.08.48.77.77,0,0,0,.2.34.67.67,0,0,0,.3.19,1.23,1.23,0,0,0,.79,0,1.49,1.49,0,0,0,.31-.16,1.4,1.4,0,0,0,.22-.16.28.28,0,0,1,.13-.07s.07,0,.11.07l.18.29a2.07,2.07,0,0,1-.67.47A2.16,2.16,0,0,1,124.72,37.48Z"/><path class="cls-1" d="M132.14,37.37a.24.24,0,0,1-.26-.19l-.09-.88a6.37,6.37,0,0,1-.57.5,3,3,0,0,1-.58.37,2.78,2.78,0,0,1-.65.23,3.14,3.14,0,0,1-.77.08,2.26,2.26,0,0,1-.69-.1,1.73,1.73,0,0,1-.58-.32,1.45,1.45,0,0,1-.41-.55,1.78,1.78,0,0,1-.16-.8,1.49,1.49,0,0,1,.25-.81,2.05,2.05,0,0,1,.78-.64,4.86,4.86,0,0,1,1.35-.44,12,12,0,0,1,2-.2v-.71a2.32,2.32,0,0,0-.41-1.47,1.47,1.47,0,0,0-1.22-.51,2.11,2.11,0,0,0-.84.14,3,3,0,0,0-.59.3,3.86,3.86,0,0,0-.39.3.45.45,0,0,1-.26.14.24.24,0,0,1-.21-.12l-.11-.2a4.06,4.06,0,0,1,1.13-.82,3.18,3.18,0,0,1,1.34-.27,2.63,2.63,0,0,1,1,.17,1.82,1.82,0,0,1,.68.51,2.2,2.2,0,0,1,.41.79,3.74,3.74,0,0,1,.14,1v4.46ZM129.38,37a2.89,2.89,0,0,0,.74-.09,3.32,3.32,0,0,0,.62-.24,3.16,3.16,0,0,0,.53-.37c.16-.14.33-.3.49-.46V34.06a12.62,12.62,0,0,0-1.69.15,4.63,4.63,0,0,0-1.16.33,1.76,1.76,0,0,0-.68.49,1.07,1.07,0,0,0-.21.65,1.4,1.4,0,0,0,.11.6,1.28,1.28,0,0,0,.3.41,1.14,1.14,0,0,0,.43.24A1.82,1.82,0,0,0,129.38,37Z"/><path class="cls-1" d="M135.6,28.15a.46.46,0,0,1,0,.23.64.64,0,0,1-.13.19.53.53,0,0,1-.2.13.55.55,0,0,1-.46,0,.53.53,0,0,1-.2-.13.64.64,0,0,1-.13-.19.59.59,0,0,1-.05-.23.69.69,0,0,1,.05-.24.64.64,0,0,1,.13-.19.53.53,0,0,1,.2-.13.55.55,0,0,1,.46,0,.53.53,0,0,1,.2.13.64.64,0,0,1,.13.19A.52.52,0,0,1,135.6,28.15Zm-.29,2.37v6.85h-.65V30.52Z"/><path class="cls-1" d="M141.52,31.37a.19.19,0,0,1-.16.1.35.35,0,0,1-.19-.09,2.7,2.7,0,0,0-.32-.19,2.78,2.78,0,0,0-.48-.2,2.81,2.81,0,0,0-.7-.08,2.07,2.07,0,0,0-.68.1,1.85,1.85,0,0,0-.52.29,1.24,1.24,0,0,0-.34.42,1,1,0,0,0-.12.49.85.85,0,0,0,.16.54,1.44,1.44,0,0,0,.44.36,3.85,3.85,0,0,0,.61.27l.7.22c.24.07.47.15.7.24a3,3,0,0,1,.61.33,1.67,1.67,0,0,1,.43.49,1.43,1.43,0,0,1,.17.71,2.12,2.12,0,0,1-.17.83,1.83,1.83,0,0,1-.46.67,2.29,2.29,0,0,1-.76.45,3,3,0,0,1-1,.16,3.17,3.17,0,0,1-1.25-.23,3.23,3.23,0,0,1-.93-.6l.16-.24a.27.27,0,0,1,.07-.08.21.21,0,0,1,.12,0,.41.41,0,0,1,.22.11,2,2,0,0,0,.34.24,2.3,2.3,0,0,0,.52.24,2.48,2.48,0,0,0,.78.11,2.2,2.2,0,0,0,.76-.12,1.5,1.5,0,0,0,.55-.33,1.45,1.45,0,0,0,.34-.48,1.71,1.71,0,0,0,.11-.59,1,1,0,0,0-.16-.58,1.36,1.36,0,0,0-.44-.38,2.62,2.62,0,0,0-.61-.27l-.7-.22a7.19,7.19,0,0,1-.7-.24,2.73,2.73,0,0,1-.61-.33,1.71,1.71,0,0,1-.44-.49,1.41,1.41,0,0,1-.16-.71,1.53,1.53,0,0,1,.16-.7A1.64,1.64,0,0,1,138,31a2.12,2.12,0,0,1,.71-.4,2.83,2.83,0,0,1,.95-.15,3.23,3.23,0,0,1,1.11.18,2.69,2.69,0,0,1,.89.55Z"/><path class="cls-1" d="M61.61,10.44a1.42,1.42,0,0,1-.37.42.81.81,0,0,1-.49.14,1.2,1.2,0,0,1-.57-.17l-.69-.38a5.67,5.67,0,0,0-.89-.37,3.53,3.53,0,0,0-1.13-.17,2.44,2.44,0,0,0-1.63.47,1.58,1.58,0,0,0-.54,1.26,1.21,1.21,0,0,0,.32.85,2.87,2.87,0,0,0,.85.57,10.15,10.15,0,0,0,1.2.45q.67.2,1.38.45a11.86,11.86,0,0,1,1.38.58,4.68,4.68,0,0,1,1.21.86,3.76,3.76,0,0,1,.84,1.26,4.45,4.45,0,0,1,.33,1.8,5.87,5.87,0,0,1-.41,2.18,5.07,5.07,0,0,1-1.17,1.77,5.35,5.35,0,0,1-1.89,1.19,7.09,7.09,0,0,1-2.56.43,8,8,0,0,1-1.6-.16,10.58,10.58,0,0,1-1.58-.45,10,10,0,0,1-1.43-.7,6,6,0,0,1-1.16-.9L52.16,20a.83.83,0,0,1,.36-.33,1,1,0,0,1,.49-.13,1.25,1.25,0,0,1,.7.22l.8.48a6.92,6.92,0,0,0,1,.49,3.77,3.77,0,0,0,1.36.22,2.64,2.64,0,0,0,1.66-.47A1.78,1.78,0,0,0,59.14,19a1.38,1.38,0,0,0-.33-1,2.38,2.38,0,0,0-.85-.61A7.82,7.82,0,0,0,56.77,17c-.45-.12-.91-.26-1.38-.41A11.52,11.52,0,0,1,54,16a4.29,4.29,0,0,1-1.2-.87A4,4,0,0,1,52,13.82a5.26,5.26,0,0,1-.33-2A4.79,4.79,0,0,1,52,10a4.88,4.88,0,0,1,1.12-1.6A5.56,5.56,0,0,1,55,7.26a6.67,6.67,0,0,1,2.46-.42,9.29,9.29,0,0,1,1.5.12,7.44,7.44,0,0,1,1.39.36,7.67,7.67,0,0,1,1.23.56,5.35,5.35,0,0,1,1,.75Z"/><path class="cls-1" d="M80.41,23.85h-3a1.39,1.39,0,0,1-.84-.24,1.2,1.2,0,0,1-.45-.6l-1-2.94H68.7L67.7,23a1.21,1.21,0,0,1-.45.58,1.3,1.3,0,0,1-.82.26H63.38L69.9,7h4ZM69.6,17.42h4.59l-1.54-4.61c-.1-.29-.22-.64-.36-1S72,11,71.9,10.49c-.13.47-.25.9-.39,1.3s-.25.75-.36,1Z"/><path class="cls-1" d="M90.82,17.07c.14.32.28.64.41,1,.13-.34.27-.67.41-1s.3-.63.45-.93l4.32-8.51a1.66,1.66,0,0,1,.24-.34.8.8,0,0,1,.27-.18.9.9,0,0,1,.34,0h3.43V23.85H97.24V14.17c0-.47,0-1,.07-1.52L92.86,21.3a1.51,1.51,0,0,1-.56.61,1.58,1.58,0,0,1-.81.21H91a1.52,1.52,0,0,1-.8-.21,1.44,1.44,0,0,1-.56-.61l-4.48-8.66c0,.27,0,.53.07.8s0,.51,0,.73v9.68H81.77V7h3.42a.9.9,0,0,1,.34,0,1,1,0,0,1,.28.18,1.34,1.34,0,0,1,.23.34l4.33,8.55C90.53,16.45,90.68,16.75,90.82,17.07Z"/><path class="cls-1" d="M107.36,18.23v5.62h-3.9V7h5.93a9.53,9.53,0,0,1,3.06.43,5.73,5.73,0,0,1,2.1,1.16,4.48,4.48,0,0,1,1.22,1.74,5.93,5.93,0,0,1,.39,2.17,6.37,6.37,0,0,1-.4,2.31,4.69,4.69,0,0,1-1.24,1.8,5.79,5.79,0,0,1-2.11,1.17,9.4,9.4,0,0,1-3,.43Zm0-3h2a2.86,2.86,0,0,0,2.2-.73,2.9,2.9,0,0,0,.67-2,3,3,0,0,0-.18-1,2,2,0,0,0-.52-.81,2.32,2.32,0,0,0-.89-.53,4,4,0,0,0-1.28-.18h-2Z"/><path class="cls-1" d="M122.1,20.73h6.23v3.12H118.19V7h3.91Z"/><path class="cls-1" d="M141,7v3h-6.9V14h5.28v2.89h-5.28v4H141v3H130.18V7Z"/><path class="cls-1" d="M157.06,10.44a1.28,1.28,0,0,1-.36.42.84.84,0,0,1-.49.14,1.2,1.2,0,0,1-.57-.17l-.7-.38a5.18,5.18,0,0,0-.88-.37,3.58,3.58,0,0,0-1.13-.17,2.47,2.47,0,0,0-1.64.47,1.6,1.6,0,0,0-.53,1.26,1.21,1.21,0,0,0,.32.85,2.87,2.87,0,0,0,.85.57,10.15,10.15,0,0,0,1.2.45q.68.2,1.38.45a11.86,11.86,0,0,1,1.38.58,4.46,4.46,0,0,1,1.2.86,3.94,3.94,0,0,1,.85,1.26,4.46,4.46,0,0,1,.32,1.8,5.86,5.86,0,0,1-.4,2.18,5.07,5.07,0,0,1-1.17,1.77,5.39,5.39,0,0,1-1.9,1.19,7,7,0,0,1-2.55.43,8,8,0,0,1-1.6-.16,10.25,10.25,0,0,1-1.58-.45,9,9,0,0,1-1.43-.7,6,6,0,0,1-1.17-.9L147.62,20a.86.86,0,0,1,.35-.33,1,1,0,0,1,.5-.13,1.3,1.3,0,0,1,.7.22c.23.15.5.31.8.48a6.07,6.07,0,0,0,1,.49,3.73,3.73,0,0,0,1.36.22,2.59,2.59,0,0,0,1.65-.47,1.75,1.75,0,0,0,.59-1.48,1.43,1.43,0,0,0-.32-1,2.47,2.47,0,0,0-.85-.61,7.58,7.58,0,0,0-1.2-.43c-.44-.12-.9-.26-1.37-.41a10.88,10.88,0,0,1-1.37-.55,4.29,4.29,0,0,1-1.2-.87,4.21,4.21,0,0,1-.85-1.34,5.47,5.47,0,0,1-.32-2,4.74,4.74,0,0,1,1.5-3.45,5.51,5.51,0,0,1,1.81-1.13,6.75,6.75,0,0,1,2.46-.42,9.33,9.33,0,0,1,1.51.12,8,8,0,0,1,2.62.92,5.6,5.6,0,0,1,1,.75Z"/><path class="cls-1" d="M172.42,7v3.1h-4.73V23.85h-3.91V10.12h-4.73V7Z"/><path class="cls-1" d="M190,15.43a9.06,9.06,0,0,1-.63,3.4,8.35,8.35,0,0,1-1.77,2.73,8.2,8.2,0,0,1-2.75,1.82,10.18,10.18,0,0,1-7.16,0,8.06,8.06,0,0,1-4.54-4.55,9.06,9.06,0,0,1-.63-3.4A9,9,0,0,1,173.1,12a8,8,0,0,1,1.78-2.73,8.13,8.13,0,0,1,2.76-1.81,10,10,0,0,1,7.16,0,8.36,8.36,0,0,1,2.75,1.82,8.14,8.14,0,0,1,1.77,2.73A9,9,0,0,1,190,15.43Zm-4,0a7.19,7.19,0,0,0-.33-2.25,4.61,4.61,0,0,0-.93-1.69,4.06,4.06,0,0,0-1.48-1.06,5.62,5.62,0,0,0-4,0,4,4,0,0,0-1.49,1.06,4.61,4.61,0,0,0-.93,1.69,7.19,7.19,0,0,0-.33,2.25,7.21,7.21,0,0,0,.33,2.26,4.61,4.61,0,0,0,.93,1.69,4,4,0,0,0,1.49,1.06,5.76,5.76,0,0,0,4,0,4.06,4.06,0,0,0,1.48-1.06,4.61,4.61,0,0,0,.93-1.69A7.21,7.21,0,0,0,186,15.43Z"/><path class="cls-1" d="M195.73,17.62v6.23h-3.91V7h5.48a11.25,11.25,0,0,1,3.11.38,5.9,5.9,0,0,1,2.1,1A4,4,0,0,1,203.69,10a5.13,5.13,0,0,1,.37,2,5.58,5.58,0,0,1-.21,1.55,4.84,4.84,0,0,1-.66,1.35,5.24,5.24,0,0,1-1.06,1.1,5.45,5.45,0,0,1-1.45.79,4.05,4.05,0,0,1,.73.49,2.92,2.92,0,0,1,.6.7l3.58,5.86h-3.54a1.49,1.49,0,0,1-1.4-.74l-2.8-4.88a1.24,1.24,0,0,0-.43-.47,1.5,1.5,0,0,0-.7-.14Zm0-2.69h1.57a3.84,3.84,0,0,0,1.35-.2,2.35,2.35,0,0,0,.92-.56,2.16,2.16,0,0,0,.52-.84,3.09,3.09,0,0,0,.16-1,2.16,2.16,0,0,0-.72-1.73A3.32,3.32,0,0,0,197.3,10h-1.57Z"/><path class="cls-1" d="M218,7v3h-6.9V14h5.29v2.89h-5.29v4H218v3H207.18V7Z"/></g></g></svg>