<svg xmlns="http://www.w3.org/2000/svg" viewBox="0 0 42.72 38.49"><defs><style>.cls-1{fill:#fff;}.cls-2{fill:#e51e27;}</style></defs><title>Asset 13</title><g id="Layer_2" data-name="Layer 2"><g id="Layer_1-2" data-name="Layer 1"><circle class="cls-1" cx="25.1" cy="17.62" r="17.62"/><path class="cls-2" d="M3.81,38.49H0L16.72,8.55a1.92,1.92,0,0,1,1.69-1h3.95L5.72,37.37A2.2,2.2,0,0,1,3.81,38.49Z"/><path class="cls-2" d="M12.08,38.49H8.13L21.42,14.92a1.87,1.87,0,0,1,1.64-1h4L13.78,37.5A1.94,1.94,0,0,1,12.08,38.49Z"/><path class="cls-2" d="M20,38.49H16.12l9.65-17.15a1.9,1.9,0,0,1,1.66-1h4L21.78,37.48A2,2,0,0,1,20,38.49Z"/></g></g></svg>