<svg width="32" height="28" viewBox="0 0 32 28" fill="none" xmlns="http://www.w3.org/2000/svg">
<path d="M10.123 18.2948H26.6493C27.0585 18.2948 27.4175 18.0242 27.5283 17.6311L31.1874 4.82471C31.266 4.54862 31.2122 4.25205 31.039 4.02266C30.8656 3.79397 30.596 3.65891 30.3082 3.65891H8.01125L7.35736 0.716536C7.26446 0.297525 6.89285 0 6.46407 0H0.914727C0.409245 0 0 0.409245 0 0.914727C0 1.42045 0.409245 1.82945 0.914727 1.82945H5.72991L9.03317 16.6938C8.06127 17.1164 7.3788 18.0837 7.3788 19.2095C7.3788 20.7226 8.60987 21.9537 10.123 21.9537H26.6493C27.155 21.9537 27.564 21.5447 27.564 21.039C27.564 20.5335 27.155 20.1242 26.6493 20.1242H10.123C9.61917 20.1242 9.20825 19.7143 9.20825 19.2095C9.20825 18.7047 9.61917 18.2948 10.123 18.2948Z" fill="#F8F8F8"/>
<path d="M9.20801 24.6978C9.20801 26.2112 10.4391 27.442 11.9524 27.442C13.4655 27.442 14.6966 26.2112 14.6966 24.6978C14.6966 23.1847 13.4655 21.9536 11.9524 21.9536C10.4391 21.9536 9.20801 23.1847 9.20801 24.6978Z" fill="#F8F8F8"/>
<path d="M22.0757 24.6978C22.0757 26.2112 23.3068 27.442 24.8199 27.442C26.3332 27.442 27.564 26.2112 27.564 24.6978C27.564 23.1847 26.3332 21.9536 24.8199 21.9536C23.3068 21.9536 22.0757 23.1847 22.0757 24.6978Z" fill="#F8F8F8"/>
</svg>
