<?xml version="1.0" encoding="utf-8"?>
<!-- Generator: Adobe Illustrator 23.0.1, SVG Export Plug-In . SVG Version: 6.00 Build 0)  -->
<svg version="1.1" id="Layer_1" xmlns="http://www.w3.org/2000/svg" xmlns:xlink="http://www.w3.org/1999/xlink" x="0px" y="0px"
	 viewBox="0 0 218.9 48.1" style="enable-background:new 0 0 218.9 48.1;" xml:space="preserve">
<style type="text/css">
	.st0{fill:#FFFFFF;}
	.st1{fill:#B82225;}
</style>
<title>Logo01_White</title>
<circle class="st0" cx="25.9" cy="21.6" r="17.6"/>
<path class="st1" d="M4.6,42.5H0.8l16.8-29.9c0.3-0.6,1-1,1.7-1h4L6.6,41.4C6.2,42.1,5.4,42.5,4.6,42.5z"/>
<path class="st1" d="M12.9,42.5H9l13.3-23.6c0.3-0.6,1-1,1.6-1h4L14.6,41.5C14.3,42.1,13.6,42.5,12.9,42.5z"/>
<path class="st1" d="M20.9,42.5H17l9.6-17.1c0.3-0.6,1-1,1.7-1h4l-9.7,17.1C22.2,42.1,21.6,42.5,20.9,42.5z"/>
<path class="st0" d="M56.6,35.4c0,0.1-0.1,0.1-0.2,0.1c-0.1,0-0.1,0-0.2-0.1c-0.1-0.1-0.2-0.1-0.3-0.2c-0.2-0.1-0.3-0.2-0.5-0.2
	c-0.2-0.1-0.5-0.1-0.7-0.1c-0.2,0-0.5,0-0.7,0.1c-0.2,0.1-0.4,0.2-0.5,0.3c-0.1,0.1-0.3,0.3-0.3,0.4c-0.1,0.2-0.1,0.3-0.1,0.5
	c0,0.2,0,0.4,0.2,0.5c0.1,0.1,0.3,0.3,0.4,0.4c0.2,0.1,0.4,0.2,0.6,0.3l0.7,0.2l0.7,0.2c0.2,0.1,0.4,0.2,0.6,0.3
	c0.2,0.1,0.3,0.3,0.4,0.5c0.1,0.2,0.2,0.5,0.2,0.7c0,0.3-0.1,0.6-0.2,0.8c-0.1,0.3-0.3,0.5-0.5,0.7c-0.2,0.2-0.5,0.3-0.8,0.4
	c-0.3,0.1-0.7,0.2-1,0.2c-0.4,0-0.9-0.1-1.2-0.2c-0.3-0.1-0.7-0.4-0.9-0.6l0.2-0.2c0,0,0-0.1,0.1-0.1c0,0,0.1,0,0.1,0
	c0.1,0,0.2,0.1,0.2,0.1c0.1,0.1,0.2,0.2,0.3,0.2c0.2,0.1,0.3,0.2,0.5,0.2C54,41,54.3,41,54.6,41c0.3,0,0.5,0,0.8-0.1
	c0.2-0.1,0.4-0.2,0.6-0.3c0.1-0.1,0.3-0.3,0.3-0.5c0.1-0.2,0.1-0.4,0.1-0.6c0-0.2-0.1-0.4-0.2-0.6c-0.1-0.2-0.3-0.3-0.4-0.4
	c-0.2-0.1-0.4-0.2-0.6-0.3c-0.2-0.1-0.5-0.2-0.7-0.2l-0.7-0.2c-0.2-0.1-0.4-0.2-0.6-0.3c-0.2-0.1-0.3-0.3-0.4-0.5
	c-0.1-0.2-0.2-0.5-0.2-0.7c0-0.2,0.1-0.5,0.2-0.7c0.1-0.2,0.3-0.4,0.4-0.6c0.2-0.2,0.5-0.3,0.7-0.4c0.3-0.1,0.7-0.2,1-0.2
	c0.4,0,0.8,0.1,1.1,0.2c0.3,0.1,0.6,0.3,0.9,0.6L56.6,35.4z"/>
<path class="st0" d="M63.1,41.4c-0.1,0-0.2-0.1-0.2-0.2l-0.1-0.9c-0.2,0.2-0.4,0.3-0.6,0.5c-0.2,0.1-0.4,0.3-0.6,0.4
	c-0.2,0.1-0.4,0.2-0.7,0.2c-0.3,0.1-0.5,0.1-0.8,0.1c-0.2,0-0.5,0-0.7-0.1c-0.2-0.1-0.4-0.2-0.6-0.3c-0.2-0.2-0.3-0.3-0.4-0.6
	c-0.1-0.3-0.2-0.5-0.1-0.8c0-0.3,0.1-0.6,0.2-0.8c0.2-0.3,0.5-0.5,0.8-0.7c0.4-0.2,0.9-0.4,1.4-0.4c0.7-0.1,1.3-0.2,2-0.2v-0.7
	c0-0.5-0.1-1-0.4-1.5c-0.3-0.4-0.7-0.5-1.2-0.5c-0.3,0-0.6,0-0.9,0.1c-0.2,0.1-0.4,0.2-0.6,0.3c-0.1,0.1-0.3,0.2-0.4,0.3
	c-0.1,0.1-0.2,0.1-0.2,0.1c-0.1,0-0.2,0-0.2-0.1l-0.1-0.2c0.3-0.3,0.7-0.6,1.1-0.8c0.4-0.2,0.9-0.3,1.4-0.3c0.3,0,0.7,0,1,0.2
	c0.3,0.1,0.5,0.3,0.7,0.5c0.2,0.2,0.3,0.5,0.4,0.8c0.1,0.3,0.1,0.7,0.1,1v4.5L63.1,41.4z M60.3,41c0.2,0,0.5,0,0.7-0.1
	c0.2-0.1,0.4-0.1,0.6-0.2c0.2-0.1,0.4-0.2,0.5-0.4c0.2-0.1,0.3-0.3,0.5-0.5v-1.8c-0.6,0-1.1,0.1-1.7,0.2c-0.4,0.1-0.8,0.2-1.2,0.3
	c-0.3,0.1-0.5,0.3-0.7,0.5C59,39.2,59,39.4,59,39.7c0,0.2,0,0.4,0.1,0.6c0.1,0.2,0.2,0.3,0.3,0.4c0.1,0.1,0.3,0.2,0.4,0.2
	C60,41,60.2,41,60.3,41L60.3,41z"/>
<path class="st0" d="M65.4,41.4v-6.9h0.4c0.1,0,0.2,0.1,0.2,0.2c0,0,0,0,0,0l0.1,1c0.1-0.2,0.3-0.4,0.4-0.5c0.1-0.2,0.3-0.3,0.5-0.4
	c0.2-0.1,0.4-0.2,0.6-0.3c0.2-0.1,0.4-0.1,0.6-0.1c0.4,0,0.9,0.1,1.2,0.4c0.3,0.3,0.5,0.8,0.6,1.2c0.1-0.3,0.2-0.5,0.4-0.7
	c0.1-0.2,0.3-0.4,0.5-0.5c0.2-0.1,0.4-0.2,0.6-0.3c0.2-0.1,0.5-0.1,0.7-0.1c0.3,0,0.6,0.1,0.9,0.2c0.3,0.1,0.5,0.3,0.7,0.5
	c0.2,0.2,0.3,0.5,0.4,0.8c0.1,0.4,0.2,0.7,0.2,1.1v4.4h-0.7V37c0-0.5-0.1-1.1-0.4-1.5c-0.3-0.4-0.8-0.5-1.2-0.5
	c-0.2,0-0.5,0-0.7,0.1c-0.2,0.1-0.4,0.2-0.6,0.4c-0.2,0.2-0.3,0.4-0.4,0.6c-0.1,0.3-0.2,0.6-0.1,0.9v4.4h-0.6V37
	c0-0.5-0.1-1.1-0.4-1.5c-0.3-0.4-0.7-0.6-1.2-0.5c-0.4,0-0.7,0.1-1,0.3c-0.3,0.2-0.6,0.6-0.8,0.9v5.2L65.4,41.4z"/>
<path class="st0" d="M76.4,43.8v-9.3h0.4c0,0,0.1,0,0.1,0c0,0,0.1,0.1,0.1,0.1l0.1,1.1c0.3-0.4,0.6-0.7,1.1-1
	c0.4-0.2,0.9-0.4,1.4-0.4c0.8,0,1.5,0.3,2,0.9c0.5,0.8,0.8,1.7,0.7,2.6c0,0.5-0.1,0.9-0.2,1.4c-0.1,0.4-0.3,0.8-0.6,1.1
	c-0.2,0.3-0.6,0.6-0.9,0.8c-0.4,0.2-0.8,0.3-1.3,0.3c-0.4,0-0.8-0.1-1.2-0.3c-0.3-0.2-0.6-0.4-0.9-0.8v3.3L76.4,43.8z M79.3,34.9
	c-0.4,0-0.9,0.1-1.2,0.3c-0.4,0.3-0.7,0.6-1,1v3.6c0.2,0.3,0.5,0.6,0.9,0.8c0.3,0.2,0.7,0.2,1.1,0.2c0.4,0,0.7-0.1,1.1-0.2
	c0.3-0.1,0.6-0.4,0.8-0.6c0.2-0.3,0.4-0.6,0.5-1c0.1-0.4,0.2-0.8,0.1-1.2c0.1-0.8-0.1-1.6-0.6-2.2C80.5,35.2,79.9,34.9,79.3,34.9z"
	/>
<path class="st0" d="M84.6,31.3v10H84v-10H84.6z"/>
<path class="st0" d="M89.6,34.4c0.4,0,0.7,0.1,1.1,0.2c0.3,0.1,0.6,0.3,0.9,0.6c0.3,0.3,0.4,0.6,0.6,0.9c0.1,0.4,0.2,0.8,0.2,1.3
	c0,0.1,0,0.1-0.1,0.2c0,0-0.1,0.1-0.1,0.1h-5v0.1c0,0.5,0.1,0.9,0.2,1.4c0.1,0.4,0.3,0.7,0.5,1c0.2,0.3,0.5,0.5,0.8,0.6
	c0.3,0.1,0.7,0.2,1.1,0.2c0.3,0,0.6,0,0.9-0.1c0.2-0.1,0.4-0.1,0.6-0.2c0.1-0.1,0.3-0.2,0.4-0.3c0.1-0.1,0.1-0.1,0.2-0.1
	c0.1,0,0.1,0,0.1,0.1l0.2,0.2c-0.1,0.1-0.3,0.3-0.4,0.4c-0.2,0.1-0.4,0.2-0.6,0.3c-0.2,0.1-0.5,0.2-0.7,0.2
	c-0.3,0.1-0.5,0.1-0.8,0.1c-0.4,0-0.9-0.1-1.3-0.2c-0.4-0.2-0.7-0.4-1-0.7c-0.3-0.3-0.5-0.7-0.6-1.2c-0.2-0.5-0.2-1-0.2-1.6
	c0-0.5,0.1-0.9,0.2-1.4c0.1-0.4,0.3-0.8,0.6-1.1c0.3-0.3,0.6-0.5,1-0.7C88.7,34.5,89.1,34.4,89.6,34.4z M89.6,34.9
	c-0.3,0-0.7,0-1,0.2c-0.3,0.1-0.5,0.3-0.7,0.5c-0.2,0.2-0.4,0.5-0.5,0.8c-0.1,0.3-0.2,0.7-0.2,1h4.5c0-0.3,0-0.7-0.1-1
	c-0.1-0.3-0.2-0.5-0.4-0.7c-0.2-0.2-0.4-0.4-0.7-0.5C90.2,35,89.9,34.9,89.6,34.9z"/>
<path class="st0" d="M97.9,35.4c0,0.1-0.1,0.1-0.1,0.1c-0.1,0-0.1,0-0.2-0.1c-0.1-0.1-0.2-0.1-0.3-0.2C97,35.1,96.9,35,96.7,35
	c-0.2-0.1-0.5-0.1-0.7-0.1c-0.2,0-0.5,0-0.7,0.1c-0.2,0.1-0.4,0.2-0.5,0.3c-0.1,0.1-0.3,0.3-0.3,0.4c-0.1,0.2-0.1,0.3-0.1,0.5
	c0,0.2,0,0.4,0.2,0.5c0.1,0.1,0.3,0.3,0.4,0.4c0.2,0.1,0.4,0.2,0.6,0.3l0.7,0.2l0.7,0.2c0.2,0.1,0.4,0.2,0.6,0.3
	c0.2,0.1,0.3,0.3,0.4,0.5c0.1,0.2,0.2,0.5,0.2,0.7c0,0.3-0.1,0.6-0.2,0.8c-0.1,0.3-0.3,0.5-0.5,0.7c-0.2,0.2-0.5,0.3-0.8,0.4
	c-0.3,0.1-0.7,0.2-1,0.2c-0.4,0-0.9-0.1-1.2-0.2c-0.3-0.2-0.7-0.4-0.9-0.6l0.2-0.2c0,0,0-0.1,0.1-0.1c0,0,0.1,0,0.1,0
	c0.1,0,0.2,0.1,0.2,0.1c0.1,0.1,0.2,0.2,0.3,0.2c0.2,0.1,0.3,0.2,0.5,0.2c0.3,0.1,0.5,0.1,0.8,0.1c0.3,0,0.5,0,0.8-0.1
	c0.2-0.1,0.4-0.2,0.6-0.3c0.1-0.1,0.3-0.3,0.3-0.5c0.1-0.2,0.1-0.4,0.1-0.6c0-0.2-0.1-0.4-0.2-0.6c-0.1-0.2-0.3-0.3-0.4-0.4
	c-0.2-0.1-0.4-0.2-0.6-0.3c-0.2-0.1-0.5-0.2-0.7-0.2L95,37.8c-0.2-0.1-0.4-0.2-0.6-0.3c-0.2-0.1-0.3-0.3-0.4-0.5
	c-0.1-0.2-0.2-0.5-0.2-0.7c0-0.2,0.1-0.5,0.2-0.7c0.1-0.2,0.3-0.4,0.4-0.6c0.2-0.2,0.5-0.3,0.7-0.4c0.3-0.1,0.6-0.2,0.9-0.2
	c0.4,0,0.8,0.1,1.1,0.2c0.3,0.1,0.6,0.3,0.9,0.6L97.9,35.4z"/>
<path class="st0" d="M107.5,41.4c-0.1,0-0.2-0.1-0.2-0.2c0,0,0,0,0,0l-0.1-1.1c-0.3,0.4-0.6,0.7-1.1,1c-0.4,0.2-0.9,0.4-1.4,0.4
	c-0.8,0.1-1.5-0.3-2-0.9c-0.5-0.8-0.8-1.7-0.7-2.6c0-0.5,0.1-0.9,0.2-1.4c0.1-0.4,0.3-0.8,0.6-1.1c0.3-0.3,0.6-0.6,0.9-0.8
	c0.4-0.2,0.8-0.3,1.3-0.3c0.4,0,0.8,0.1,1.2,0.2c0.3,0.2,0.6,0.4,0.9,0.8v-4.1h0.7v10L107.5,41.4z M105,40.9c0.4,0,0.9-0.1,1.2-0.3
	c0.4-0.3,0.7-0.6,1-1V36c-0.2-0.3-0.5-0.6-0.9-0.8c-0.3-0.2-0.7-0.2-1.1-0.2c-0.4,0-0.7,0.1-1.1,0.2c-0.3,0.1-0.6,0.4-0.8,0.6
	c-0.2,0.3-0.4,0.6-0.5,1c-0.1,0.4-0.2,0.8-0.2,1.2c-0.1,0.8,0.1,1.6,0.6,2.2C103.8,40.7,104.4,41,105,40.9z"/>
<path class="st0" d="M111.3,32.2c0,0.1,0,0.2-0.1,0.2c0,0.1-0.1,0.1-0.1,0.2c-0.1,0.1-0.1,0.1-0.2,0.1c-0.1,0-0.2,0-0.2,0
	c-0.1,0-0.2,0-0.2,0c-0.1-0.1-0.3-0.2-0.3-0.3c0-0.1-0.1-0.2-0.1-0.2c0-0.1,0-0.2,0.1-0.2c0.1-0.1,0.2-0.3,0.3-0.3
	c0.1,0,0.2,0,0.2,0c0.1,0,0.2,0,0.2,0c0.1,0,0.1,0.1,0.2,0.1c0.1,0.1,0.1,0.1,0.1,0.2C111.3,32,111.3,32.1,111.3,32.2z M111,34.5
	v6.9h-0.7v-6.9H111z"/>
<path class="st0" d="M115.7,34.4c0.3,0,0.6,0,0.8,0.1c0.2,0.1,0.5,0.2,0.7,0.3h1.8V35c0,0.1-0.1,0.2-0.2,0.2l-1,0.1
	c0.1,0.2,0.2,0.4,0.3,0.6c0.1,0.2,0.1,0.5,0.1,0.7c0,0.3-0.1,0.6-0.2,0.9c-0.1,0.3-0.3,0.5-0.5,0.7c-0.2,0.2-0.5,0.3-0.8,0.4
	c-0.3,0.1-0.7,0.2-1,0.2c-0.4,0-0.8,0-1.2-0.1c-0.2,0.1-0.3,0.2-0.5,0.4c-0.1,0.1-0.2,0.3-0.2,0.4c0,0.2,0.1,0.3,0.2,0.5
	c0.2,0.1,0.3,0.2,0.5,0.2c0.3,0,0.5,0.1,0.8,0.1h0.9c0.3,0,0.6,0,0.9,0.1c0.3,0,0.5,0.1,0.8,0.2c0.2,0.1,0.4,0.2,0.6,0.4
	c0.1,0.2,0.2,0.5,0.2,0.7c0,0.3-0.1,0.6-0.2,0.8c-0.2,0.3-0.4,0.5-0.6,0.7c-0.3,0.2-0.6,0.4-1,0.5c-0.4,0.1-0.8,0.2-1.3,0.2
	c-0.4,0-0.9,0-1.3-0.2c-0.3-0.1-0.6-0.2-0.9-0.4c-0.2-0.1-0.4-0.3-0.6-0.6c-0.1-0.2-0.2-0.5-0.2-0.7c0-0.3,0.1-0.7,0.4-0.9
	c0.3-0.3,0.6-0.5,1-0.6c-0.2-0.1-0.4-0.2-0.6-0.3c-0.1-0.2-0.2-0.4-0.2-0.6c0-0.1,0-0.2,0.1-0.3c0-0.1,0.1-0.2,0.2-0.3
	c0.1-0.1,0.2-0.2,0.3-0.3c0.1-0.1,0.2-0.2,0.4-0.2c-0.3-0.2-0.6-0.4-0.8-0.8c-0.2-0.3-0.3-0.7-0.3-1.1c0-0.3,0.1-0.6,0.2-0.9
	c0.1-0.3,0.3-0.5,0.5-0.7c0.2-0.2,0.5-0.4,0.8-0.4C115,34.4,115.4,34.4,115.7,34.4z M118.3,41.8c0-0.2-0.1-0.4-0.2-0.5
	c-0.1-0.1-0.3-0.2-0.4-0.3c-0.2-0.1-0.4-0.1-0.6-0.2l-0.8-0.1h-0.8c-0.3,0-0.5,0-0.8-0.1c-0.2,0.1-0.3,0.1-0.5,0.2
	c-0.1,0.1-0.3,0.2-0.4,0.3c-0.1,0.1-0.2,0.2-0.2,0.4c-0.1,0.1-0.1,0.3-0.1,0.4c0,0.2,0.1,0.4,0.1,0.6c0.1,0.2,0.3,0.3,0.5,0.4
	c0.2,0.1,0.5,0.2,0.7,0.3c0.3,0.1,0.7,0.1,1,0.1c0.3,0,0.7,0,1-0.1c0.3-0.1,0.5-0.2,0.8-0.3c0.2-0.1,0.4-0.3,0.5-0.5
	C118.2,42.3,118.3,42.1,118.3,41.8z M115.7,38.3c0.3,0,0.5,0,0.8-0.1c0.2-0.1,0.4-0.2,0.6-0.3c0.2-0.2,0.3-0.3,0.4-0.6
	c0.1-0.2,0.1-0.5,0.1-0.7c0-0.2,0-0.5-0.1-0.7c-0.1-0.2-0.2-0.4-0.4-0.6c-0.2-0.2-0.4-0.3-0.6-0.3c-0.5-0.2-1.1-0.2-1.6,0
	c-0.2,0.1-0.4,0.2-0.6,0.3c-0.2,0.2-0.3,0.3-0.4,0.6c-0.1,0.2-0.1,0.5-0.1,0.7c0,0.2,0,0.5,0.1,0.7c0.1,0.2,0.2,0.4,0.4,0.6
	c0.2,0.2,0.4,0.3,0.6,0.3C115.2,38.3,115.4,38.3,115.7,38.3z"/>
<path class="st0" d="M121.5,32.2c0,0.1,0,0.2-0.1,0.2c0,0.1-0.1,0.1-0.1,0.2c-0.1,0.1-0.1,0.1-0.2,0.1c-0.1,0.1-0.3,0.1-0.5,0
	c-0.1,0-0.1-0.1-0.2-0.1c-0.1-0.1-0.1-0.1-0.1-0.2c0-0.1,0-0.2-0.1-0.2c0-0.1,0-0.2,0.1-0.2c0-0.1,0.1-0.1,0.1-0.2
	c0.1-0.1,0.1-0.1,0.2-0.1c0.1-0.1,0.3-0.1,0.5,0c0.1,0,0.1,0.1,0.2,0.1c0.1,0.1,0.1,0.1,0.1,0.2C121.5,32,121.5,32.1,121.5,32.2z
	 M121.3,34.5v6.9h-0.7v-6.9H121.3z"/>
<path class="st0" d="M125.6,41.5c-0.4,0-0.8-0.1-1.1-0.4c-0.3-0.3-0.4-0.8-0.4-1.2v-4.7h-1c0,0-0.1,0-0.1,0c0,0-0.1-0.1-0.1-0.1
	v-0.3l1.2-0.1l0.2-2.4c0,0,0-0.1,0.1-0.1c0,0,0.1,0,0.1-0.1h0.3v2.6h2.2v0.5h-2.2v4.7c0,0.2,0,0.3,0.1,0.5c0.1,0.2,0.3,0.4,0.5,0.5
	c0.3,0.1,0.5,0.1,0.8,0c0.1,0,0.2-0.1,0.3-0.2l0.2-0.2c0,0,0.1-0.1,0.1-0.1c0,0,0.1,0,0.1,0.1l0.2,0.3c-0.2,0.2-0.4,0.4-0.7,0.5
	C126.2,41.5,125.9,41.5,125.6,41.5z"/>
<path class="st0" d="M133,41.4c-0.1,0-0.2-0.1-0.3-0.2l-0.1-0.9c-0.2,0.2-0.4,0.3-0.6,0.5c-0.2,0.1-0.4,0.3-0.6,0.4
	c-0.2,0.1-0.4,0.2-0.6,0.2c-0.3,0.1-0.5,0.1-0.8,0.1c-0.2,0-0.5,0-0.7-0.1c-0.2-0.1-0.4-0.2-0.6-0.3c-0.2-0.1-0.3-0.3-0.4-0.6
	c-0.1-0.3-0.2-0.5-0.2-0.8c0-0.3,0.1-0.6,0.2-0.8c0.2-0.3,0.5-0.5,0.8-0.7c0.4-0.2,0.9-0.4,1.4-0.4c0.7-0.1,1.3-0.2,2-0.2v-0.7
	c0-0.5-0.1-1-0.4-1.5c-0.3-0.4-0.8-0.5-1.2-0.5c-0.3,0-0.6,0-0.8,0.1c-0.2,0.1-0.4,0.2-0.6,0.3c-0.1,0.1-0.3,0.2-0.4,0.3
	c-0.1,0.1-0.2,0.1-0.3,0.1c-0.1,0-0.2,0-0.2-0.1l-0.1-0.2c0.3-0.3,0.7-0.6,1.1-0.8c0.4-0.2,0.9-0.3,1.3-0.3c0.3,0,0.7,0,1,0.2
	c0.3,0.1,0.5,0.3,0.7,0.5c0.2,0.2,0.3,0.5,0.4,0.8c0.1,0.3,0.1,0.7,0.1,1v4.5L133,41.4z M130.2,41c0.2,0,0.5,0,0.7-0.1
	c0.2-0.1,0.4-0.2,0.7-0.3c0.2-0.1,0.4-0.2,0.5-0.4c0.2-0.1,0.3-0.3,0.5-0.5V38c-0.6,0-1.1,0.1-1.7,0.2c-0.4,0.1-0.8,0.2-1.2,0.3
	c-0.3,0.1-0.5,0.3-0.7,0.5c-0.1,0.2-0.2,0.4-0.2,0.7c0,0.2,0,0.4,0.1,0.6c0.1,0.2,0.2,0.3,0.3,0.4c0.1,0.1,0.3,0.2,0.4,0.2
	C129.9,41,130,41,130.2,41z"/>
<path class="st0" d="M136.4,32.2c0,0.1,0,0.2,0,0.2c0,0.1-0.1,0.1-0.1,0.2c-0.1,0.1-0.1,0.1-0.2,0.1c-0.1,0.1-0.3,0.1-0.5,0
	c-0.1,0-0.1-0.1-0.2-0.1c-0.1-0.1-0.1-0.1-0.1-0.2c0-0.1,0-0.2,0-0.2c0-0.1,0-0.2,0-0.2c0-0.1,0.1-0.1,0.1-0.2
	c0.1-0.1,0.1-0.1,0.2-0.1c0.1-0.1,0.3-0.1,0.5,0c0.1,0,0.1,0.1,0.2,0.1c0.1,0.1,0.1,0.1,0.1,0.2C136.4,32,136.4,32.1,136.4,32.2z
	 M136.1,34.5v6.9h-0.6v-6.9H136.1z"/>
<path class="st0" d="M142.4,35.4c0,0.1-0.1,0.1-0.2,0.1c-0.1,0-0.1,0-0.2-0.1c-0.1-0.1-0.2-0.1-0.3-0.2c-0.2-0.1-0.3-0.2-0.5-0.2
	c-0.2-0.1-0.5-0.1-0.7-0.1c-0.2,0-0.5,0-0.7,0.1c-0.2,0.1-0.4,0.2-0.5,0.3c-0.1,0.1-0.3,0.3-0.3,0.4c-0.1,0.2-0.1,0.3-0.1,0.5
	c0,0.2,0,0.4,0.2,0.5c0.1,0.1,0.3,0.3,0.4,0.4c0.2,0.1,0.4,0.2,0.6,0.3l0.7,0.2l0.7,0.2c0.2,0.1,0.4,0.2,0.6,0.3
	c0.2,0.1,0.3,0.3,0.4,0.5c0.1,0.2,0.2,0.5,0.2,0.7c0,0.3-0.1,0.6-0.2,0.8c-0.1,0.3-0.3,0.5-0.5,0.7c-0.2,0.2-0.5,0.3-0.8,0.4
	c-0.3,0.1-0.7,0.2-1,0.2c-0.4,0-0.9-0.1-1.2-0.2c-0.3-0.1-0.7-0.4-0.9-0.6l0.2-0.2c0,0,0-0.1,0.1-0.1c0,0,0.1,0,0.1,0
	c0.1,0,0.2,0.1,0.2,0.1c0.1,0.1,0.2,0.2,0.3,0.2c0.2,0.1,0.3,0.2,0.5,0.2c0.3,0.1,0.5,0.1,0.8,0.1c0.3,0,0.5,0,0.8-0.1
	c0.2-0.1,0.4-0.2,0.5-0.3c0.1-0.1,0.3-0.3,0.3-0.5c0.1-0.2,0.1-0.4,0.1-0.6c0-0.2-0.1-0.4-0.2-0.6c-0.1-0.2-0.3-0.3-0.4-0.4
	c-0.2-0.1-0.4-0.2-0.6-0.3c-0.2-0.1-0.5-0.2-0.7-0.2l-0.7-0.2c-0.2-0.1-0.4-0.2-0.6-0.3c-0.2-0.1-0.3-0.3-0.4-0.5
	c-0.1-0.2-0.2-0.5-0.2-0.7c0-0.2,0.1-0.5,0.2-0.7c0.1-0.2,0.3-0.4,0.5-0.6c0.2-0.2,0.5-0.3,0.7-0.4c0.3-0.1,0.6-0.2,1-0.2
	c0.4,0,0.8,0.1,1.1,0.2c0.3,0.1,0.6,0.3,0.9,0.6L142.4,35.4z"/>
<path class="st0" d="M62.4,14.4c-0.1,0.2-0.2,0.3-0.4,0.4C61.9,15,61.8,15,61.6,15c-0.2,0-0.4-0.1-0.6-0.2l-0.7-0.4
	c-0.3-0.2-0.6-0.3-0.9-0.4c-0.4-0.1-0.7-0.2-1.1-0.2c-0.6,0-1.2,0.1-1.6,0.5c-0.4,0.3-0.6,0.8-0.5,1.3c0,0.3,0.1,0.6,0.3,0.8
	c0.2,0.2,0.5,0.4,0.9,0.6c0.4,0.2,0.8,0.3,1.2,0.4c0.4,0.1,0.9,0.3,1.4,0.4c0.5,0.2,0.9,0.4,1.4,0.6c0.4,0.2,0.9,0.5,1.2,0.8
	c0.4,0.4,0.6,0.8,0.8,1.3c0.2,0.6,0.3,1.2,0.3,1.8c0,0.7-0.1,1.5-0.4,2.2c-0.3,0.7-0.7,1.3-1.2,1.8c-0.5,0.5-1.2,0.9-1.9,1.2
	c-0.8,0.3-1.7,0.4-2.6,0.4C57,28,56.5,28,56,27.9c-0.5-0.1-1.1-0.3-1.6-0.5c-0.5-0.2-1-0.4-1.4-0.7c-0.4-0.3-0.8-0.6-1.2-0.9
	l1.1-1.8c0.1-0.1,0.2-0.3,0.4-0.3c0.1-0.1,0.3-0.1,0.5-0.1c0.3,0,0.5,0.1,0.7,0.2c0.2,0.1,0.5,0.3,0.8,0.5c0.3,0.2,0.7,0.4,1,0.5
	c0.4,0.2,0.9,0.2,1.4,0.2c0.6,0,1.2-0.1,1.7-0.5c0.4-0.4,0.6-0.9,0.6-1.5c0-0.4-0.1-0.7-0.3-1c-0.2-0.3-0.5-0.5-0.9-0.6
	c-0.4-0.2-0.8-0.3-1.2-0.4c-0.4-0.1-0.9-0.3-1.4-0.4c-0.5-0.2-0.9-0.3-1.4-0.6c-0.4-0.2-0.9-0.5-1.2-0.9c-0.4-0.4-0.7-0.8-0.8-1.3
	c-0.2-0.6-0.4-1.3-0.3-2c0-0.6,0.1-1.3,0.4-1.8c0.3-0.6,0.6-1.2,1.1-1.6c0.5-0.5,1.1-0.9,1.8-1.1c0.8-0.3,1.6-0.4,2.5-0.4
	c0.5,0,1,0,1.5,0.1c0.5,0.1,0.9,0.2,1.4,0.4c0.4,0.1,0.8,0.3,1.2,0.6c0.4,0.2,0.7,0.5,1,0.8L62.4,14.4z"/>
<path class="st0" d="M81.2,27.9h-3c-0.3,0-0.6-0.1-0.8-0.2C77.2,27.5,77,27.2,77,27l-1-2.9h-6.4l-1,2.9c-0.1,0.2-0.2,0.4-0.4,0.6
	c-0.2,0.2-0.5,0.3-0.8,0.3h-3L70.8,11h4L81.2,27.9z M70.4,21.4H75l-1.5-4.6l-0.4-1c-0.1-0.4-0.3-0.8-0.4-1.3
	c-0.1,0.5-0.2,0.9-0.4,1.3s-0.2,0.8-0.4,1L70.4,21.4z"/>
<path class="st0" d="M91.7,21.1c0.1,0.3,0.3,0.6,0.4,1c0.1-0.3,0.3-0.7,0.4-1s0.3-0.6,0.4-0.9l4.3-8.5c0.1-0.1,0.1-0.2,0.2-0.3
	c0.1-0.1,0.2-0.1,0.3-0.2c0.1,0,0.2-0.1,0.3-0.1h3.4v16.8h-3.4v-9.7c0-0.5,0-1,0.1-1.5l-4.4,8.7c-0.1,0.3-0.3,0.5-0.6,0.6
	c-0.2,0.1-0.5,0.2-0.8,0.2h-0.5c-0.3,0-0.6-0.1-0.8-0.2c-0.2-0.1-0.4-0.4-0.6-0.6L86,16.7c0,0.3,0.1,0.5,0.1,0.8s0,0.5,0,0.7v9.7
	h-3.4V11H86c0.1,0,0.2,0,0.3,0.1c0.1,0,0.2,0.1,0.3,0.2c0.1,0.1,0.2,0.2,0.2,0.3l4.3,8.5C91.4,20.5,91.5,20.8,91.7,21.1z"/>
<path class="st0" d="M108.2,22.2v5.6h-3.9V11h5.9c1,0,2.1,0.1,3.1,0.4c0.8,0.2,1.5,0.6,2.1,1.2c0.5,0.5,1,1.1,1.2,1.7
	c0.3,0.7,0.4,1.4,0.4,2.2c0,0.8-0.1,1.6-0.4,2.3c-0.3,0.7-0.7,1.3-1.2,1.8c-0.6,0.5-1.3,0.9-2.1,1.2c-1,0.3-2,0.4-3,0.4L108.2,22.2z
	 M108.2,19.3h2c0.8,0.1,1.6-0.2,2.2-0.7c0.7-0.9,0.8-2,0.5-3.1c-0.1-0.3-0.3-0.6-0.5-0.8c-0.3-0.2-0.6-0.4-0.9-0.5
	c-0.4-0.1-0.8-0.2-1.3-0.2h-2V19.3z"/>
<path class="st0" d="M122.9,24.7h6.2v3.1H119V11h3.9V24.7z"/>
<path class="st0" d="M141.8,11v3h-6.9V18h5.3v2.9h-5.3v4h6.9v3H131V11H141.8z"/>
<path class="st0" d="M157.9,14.4c-0.1,0.2-0.2,0.3-0.4,0.4c-0.1,0.1-0.3,0.1-0.5,0.1c-0.2,0-0.4-0.1-0.6-0.2l-0.7-0.4
	c-0.3-0.2-0.6-0.3-0.9-0.4c-0.4-0.1-0.7-0.2-1.1-0.2c-0.6,0-1.2,0.1-1.6,0.5c-0.4,0.3-0.5,0.8-0.5,1.3c0,0.3,0.1,0.6,0.3,0.8
	c0.2,0.2,0.5,0.4,0.9,0.6c0.4,0.2,0.8,0.3,1.2,0.4c0.4,0.1,0.9,0.3,1.4,0.4c0.5,0.2,0.9,0.4,1.4,0.6c0.4,0.2,0.8,0.5,1.2,0.8
	c0.4,0.4,0.7,0.8,0.9,1.3c0.2,0.6,0.3,1.2,0.3,1.8c0,0.7-0.1,1.5-0.4,2.2c-0.3,0.7-0.7,1.3-1.2,1.8c-0.6,0.5-1.2,1-1.9,1.2
	c-0.8,0.3-1.7,0.4-2.5,0.4c-0.5,0-1.1-0.1-1.6-0.2c-0.5-0.1-1.1-0.3-1.6-0.5c-0.5-0.2-1-0.4-1.4-0.7c-0.4-0.3-0.8-0.6-1.2-0.9
	l1.2-1.8c0.1-0.1,0.2-0.3,0.4-0.3c0.2-0.1,0.3-0.1,0.5-0.1c0.2,0,0.5,0.1,0.7,0.2c0.2,0.1,0.5,0.3,0.8,0.5c0.3,0.2,0.7,0.4,1,0.5
	c0.4,0.2,0.9,0.2,1.4,0.2c0.6,0,1.2-0.1,1.6-0.5c0.4-0.4,0.6-0.9,0.6-1.5c0-0.4-0.1-0.7-0.3-1c-0.2-0.3-0.5-0.5-0.9-0.6
	c-0.4-0.2-0.8-0.3-1.2-0.4l-1.4-0.4c-0.5-0.2-0.9-0.3-1.4-0.6c-0.4-0.2-0.9-0.5-1.2-0.9c-0.4-0.4-0.7-0.8-0.9-1.3
	c-0.2-0.6-0.3-1.3-0.3-2c0-1.3,0.5-2.6,1.5-3.5c0.5-0.5,1.1-0.9,1.8-1.1c0.8-0.3,1.6-0.4,2.5-0.4c0.5,0,1,0,1.5,0.1
	c0.5,0.1,0.9,0.2,1.4,0.4c0.4,0.1,0.8,0.3,1.2,0.6c0.4,0.2,0.7,0.5,1,0.8L157.9,14.4z"/>
<path class="st0" d="M173.2,11v3.1h-4.7v13.7h-3.9V14.1h-4.7V11H173.2z"/>
<path class="st0" d="M190.8,19.4c0,1.2-0.2,2.3-0.6,3.4c-0.4,1-1,2-1.8,2.7c-0.8,0.8-1.7,1.4-2.8,1.8c-2.3,0.9-4.9,0.9-7.2,0
	c-1-0.4-2-1-2.8-1.8c-0.8-0.8-1.4-1.7-1.8-2.7c-0.8-2.2-0.8-4.6,0-6.8c0.4-1,1-1.9,1.8-2.7c0.8-0.8,1.7-1.4,2.8-1.8
	c2.3-0.9,4.9-0.9,7.2,0c2.1,0.8,3.7,2.5,4.5,4.6C190.6,17.1,190.8,18.3,190.8,19.4z M186.8,19.4c0-0.8-0.1-1.5-0.3-2.2
	c-0.2-0.6-0.5-1.2-0.9-1.7c-0.4-0.5-0.9-0.8-1.5-1.1c-1.3-0.5-2.7-0.5-4,0c-0.6,0.2-1,0.6-1.4,1.1c-0.4,0.5-0.7,1.1-0.9,1.7
	c-0.5,1.5-0.5,3-0.1,4.5c0.2,0.6,0.5,1.2,0.9,1.7c0.4,0.5,0.9,0.8,1.5,1.1c1.3,0.5,2.7,0.5,4,0c0.6-0.2,1.1-0.6,1.5-1.1
	c0.4-0.5,0.7-1.1,0.9-1.7C186.7,20.9,186.8,20.2,186.8,19.4L186.8,19.4z"/>
<path class="st0" d="M196.6,21.7v6.2h-3.9V11h5.5c1,0,2.1,0.1,3.1,0.4c0.8,0.2,1.5,0.5,2.1,1c0.5,0.4,0.9,1,1.2,1.6
	c0.3,0.6,0.4,1.3,0.4,2c0,0.5-0.1,1-0.2,1.6c-0.1,0.5-0.4,0.9-0.7,1.3c-0.3,0.4-0.7,0.8-1.1,1.1c-0.4,0.3-0.9,0.6-1.5,0.8
	c0.3,0.1,0.5,0.3,0.7,0.5c0.2,0.2,0.4,0.4,0.6,0.7l3.6,5.9h-3.5c-0.6,0-1.1-0.2-1.4-0.7l-2.8-4.9c-0.1-0.2-0.2-0.3-0.4-0.5
	c-0.2-0.1-0.5-0.1-0.7-0.1H196.6z M196.6,19h1.6c0.5,0,0.9-0.1,1.4-0.2c0.3-0.1,0.7-0.3,0.9-0.6c0.2-0.2,0.4-0.5,0.5-0.8
	c0.1-0.3,0.2-0.7,0.2-1c0-0.7-0.2-1.3-0.7-1.7c-0.6-0.5-1.4-0.7-2.2-0.6h-1.6V19z"/>
<path class="st0" d="M218.8,11v3h-6.9V18h5.3v2.9h-5.3v4h6.9v3H208V11H218.8z"/>
</svg>
