<?xml version="1.0" encoding="utf-8"?>
<!-- Generator: Adobe Illustrator 23.0.1, SVG Export Plug-In . SVG Version: 6.00 Build 0)  -->
<svg version="1.1" id="Layer_1" xmlns="http://www.w3.org/2000/svg" xmlns:xlink="http://www.w3.org/1999/xlink" x="0px" y="0px"
	 viewBox="0 0 218.9 53" style="enable-background:new 0 0 218.9 53;" xml:space="preserve">
<style type="text/css">
	.st0{fill:#B82225;}
	.st1{fill:#FFFFFF;stroke:#B82225;stroke-width:0.98;stroke-miterlimit:10;}
	.st2{fill:#231F20;}
</style>
<title>Logo01_Black</title>
<circle class="st0" cx="25.9" cy="23.6" r="17.6"/>
<path class="st1" d="M4.6,44.5H0.8l16.8-29.9c0.3-0.6,1-1,1.7-1h4L6.6,43.4C6.2,44.1,5.4,44.5,4.6,44.5z"/>
<path class="st1" d="M12.9,44.5H9l13.3-23.6c0.3-0.6,1-1,1.6-1h4L14.6,43.5C14.3,44.1,13.6,44.5,12.9,44.5z"/>
<path class="st1" d="M20.9,44.5H17l9.6-17.1c0.3-0.6,1-1,1.7-1h4l-9.7,17.1C22.2,44.1,21.6,44.5,20.9,44.5z"/>
<path class="st2" d="M56.6,37.4c0,0.1-0.1,0.1-0.2,0.1c-0.1,0-0.1,0-0.2-0.1c-0.1-0.1-0.2-0.1-0.3-0.2c-0.2-0.1-0.3-0.1-0.5-0.2
	c-0.2-0.1-0.5-0.1-0.7-0.1c-0.2,0-0.5,0-0.7,0.1c-0.2,0.1-0.4,0.2-0.5,0.3c-0.1,0.1-0.3,0.3-0.3,0.4c-0.1,0.2-0.1,0.3-0.1,0.5
	c0,0.2,0,0.4,0.2,0.5c0.1,0.1,0.3,0.3,0.4,0.4c0.2,0.1,0.4,0.2,0.6,0.3l0.7,0.2c0.2,0.1,0.5,0.1,0.7,0.2c0.2,0.1,0.4,0.2,0.6,0.3
	c0.2,0.1,0.3,0.3,0.4,0.5c0.1,0.2,0.2,0.5,0.2,0.7c0,0.3-0.1,0.6-0.2,0.8c-0.1,0.3-0.3,0.5-0.5,0.7c-0.2,0.2-0.5,0.4-0.8,0.4
	c-0.3,0.1-0.7,0.2-1,0.2c-0.4,0-0.9-0.1-1.2-0.2c-0.3-0.1-0.7-0.3-0.9-0.6l0.2-0.2c0,0,0-0.1,0.1-0.1c0,0,0.1,0,0.1,0
	c0.1,0,0.2,0.1,0.2,0.1c0.1,0.1,0.2,0.2,0.3,0.2c0.2,0.1,0.3,0.2,0.5,0.2C54,43,54.3,43,54.6,43c0.3,0,0.5,0,0.8-0.1
	c0.2-0.1,0.4-0.2,0.6-0.3c0.1-0.1,0.3-0.3,0.3-0.5c0.1-0.2,0.1-0.4,0.1-0.6c0-0.2,0-0.4-0.2-0.6c-0.1-0.2-0.3-0.3-0.4-0.4
	c-0.2-0.1-0.4-0.2-0.6-0.3L54.4,40c-0.2-0.1-0.5-0.1-0.7-0.2c-0.2-0.1-0.4-0.2-0.6-0.3c-0.2-0.1-0.3-0.3-0.4-0.5
	c-0.1-0.2-0.2-0.5-0.2-0.7c0-0.2,0.1-0.5,0.2-0.7c0.1-0.2,0.3-0.4,0.4-0.6c0.2-0.2,0.4-0.3,0.7-0.4c0.3-0.1,0.7-0.2,1-0.1
	c0.4,0,0.8,0.1,1.1,0.2c0.3,0.1,0.6,0.3,0.9,0.6L56.6,37.4z"/>
<path class="st2" d="M63.1,43.4c-0.1,0-0.2-0.1-0.2-0.2l-0.1-0.9c-0.2,0.2-0.4,0.4-0.6,0.5c-0.2,0.1-0.4,0.3-0.6,0.4
	c-0.2,0.1-0.4,0.2-0.7,0.2c-0.3,0.1-0.5,0.1-0.8,0.1c-0.2,0-0.5,0-0.7-0.1c-0.2-0.1-0.4-0.2-0.6-0.3c-0.2-0.2-0.3-0.3-0.4-0.6
	c-0.1-0.3-0.2-0.5-0.1-0.8c0-0.3,0.1-0.6,0.2-0.8c0.2-0.3,0.5-0.5,0.8-0.6c0.4-0.2,0.9-0.4,1.4-0.4c0.7-0.1,1.3-0.2,2-0.2v-0.7
	c0-0.5-0.1-1-0.4-1.5c-0.3-0.4-0.7-0.5-1.2-0.5c-0.3,0-0.6,0-0.9,0.1c-0.2,0.1-0.4,0.2-0.6,0.3c-0.1,0.1-0.3,0.2-0.4,0.3
	c-0.1,0.1-0.2,0.1-0.2,0.1c-0.1,0-0.2,0-0.2-0.1l-0.1-0.2c0.3-0.3,0.7-0.6,1.1-0.8c0.4-0.2,0.9-0.3,1.4-0.3c0.3,0,0.7,0,1,0.2
	c0.3,0.1,0.5,0.3,0.7,0.5c0.2,0.2,0.3,0.5,0.4,0.8c0.1,0.3,0.1,0.7,0.1,1v4.5H63.1z M60.3,43c0.2,0,0.5,0,0.7-0.1
	c0.2-0.1,0.4-0.1,0.6-0.2c0.2-0.1,0.4-0.2,0.5-0.4c0.2-0.1,0.3-0.3,0.5-0.5V40c-0.6,0-1.1,0.1-1.7,0.1c-0.4,0.1-0.8,0.2-1.2,0.3
	c-0.3,0.1-0.5,0.3-0.7,0.5C59,41.2,59,41.4,59,41.7c0,0.2,0,0.4,0.1,0.6c0.1,0.3,0.4,0.6,0.7,0.6C60,43,60.2,43,60.3,43L60.3,43z"/>
<path class="st2" d="M65.4,43.4v-6.9h0.4c0.1,0,0.2,0.1,0.2,0.2c0,0,0,0,0,0l0.1,1c0.1-0.2,0.3-0.4,0.4-0.5c0.2-0.1,0.3-0.3,0.5-0.4
	c0.2-0.1,0.4-0.2,0.6-0.3c0.2-0.1,0.4-0.1,0.6-0.1c0.4,0,0.9,0.1,1.2,0.4c0.3,0.3,0.5,0.8,0.6,1.2c0.1-0.3,0.2-0.5,0.4-0.7
	c0.1-0.2,0.3-0.4,0.5-0.5c0.2-0.1,0.4-0.2,0.6-0.3c0.2-0.1,0.5-0.1,0.7-0.1c0.3,0,0.6,0,0.9,0.2c0.3,0.1,0.5,0.3,0.7,0.5
	c0.2,0.2,0.3,0.5,0.4,0.8c0.1,0.4,0.2,0.7,0.2,1.1v4.4h-0.7V39c0-0.5-0.1-1.1-0.4-1.5c-0.3-0.4-0.8-0.6-1.2-0.5
	c-0.2,0-0.5,0-0.7,0.1c-0.2,0.1-0.4,0.2-0.6,0.4c-0.2,0.2-0.3,0.4-0.4,0.6c-0.1,0.3-0.2,0.6-0.1,0.9v4.4h-0.6V39
	c0-0.5-0.1-1.1-0.4-1.5c-0.3-0.4-0.7-0.6-1.2-0.5c-0.4,0-0.7,0.1-1,0.3c-0.3,0.3-0.6,0.6-0.8,0.9v5.2H65.4z"/>
<path class="st2" d="M76.4,45.8v-9.3h0.4c0,0,0.1,0,0.1,0c0,0,0.1,0.1,0.1,0.1l0.1,1.1c0.3-0.4,0.7-0.7,1.1-1
	c0.4-0.2,0.9-0.4,1.4-0.4c0.8,0,1.5,0.3,2,0.9c0.5,0.8,0.8,1.7,0.7,2.6c0,0.5-0.1,0.9-0.2,1.4c-0.1,0.4-0.3,0.8-0.6,1.1
	c-0.3,0.3-0.6,0.6-0.9,0.8c-0.4,0.2-0.8,0.3-1.3,0.3c-0.4,0-0.8-0.1-1.2-0.2c-0.3-0.2-0.6-0.4-0.9-0.8v3.4L76.4,45.8z M79.3,36.9
	c-0.4,0-0.9,0.1-1.2,0.4c-0.4,0.3-0.7,0.6-1,1v3.6c0.2,0.3,0.5,0.6,0.9,0.8c0.3,0.2,0.7,0.2,1.1,0.2c0.4,0,0.7-0.1,1.1-0.2
	c0.3-0.1,0.6-0.4,0.8-0.6c0.2-0.3,0.4-0.6,0.5-1c0.1-0.4,0.2-0.8,0.1-1.2c0.1-0.8-0.1-1.6-0.6-2.2C80.5,37.2,79.9,36.9,79.3,36.9z"
	/>
<path class="st2" d="M84.6,33.4v10H84v-10H84.6z"/>
<path class="st2" d="M89.6,36.4c0.4,0,0.7,0.1,1.1,0.2c0.3,0.1,0.6,0.3,0.9,0.6c0.3,0.3,0.4,0.6,0.6,0.9c0.1,0.4,0.2,0.8,0.2,1.3
	c0,0.1,0,0.1-0.1,0.2c0,0-0.1,0-0.1,0h-5v0.1c0,0.5,0.1,0.9,0.2,1.4c0.1,0.4,0.3,0.7,0.5,1c0.2,0.3,0.5,0.5,0.8,0.6
	c0.3,0.1,0.7,0.2,1.1,0.2c0.3,0,0.6,0,0.9-0.1c0.2-0.1,0.4-0.1,0.6-0.2c0.1-0.1,0.3-0.2,0.4-0.3c0.1-0.1,0.1-0.1,0.2-0.1
	c0.1,0,0.1,0,0.1,0.1l0.2,0.2c-0.1,0.2-0.3,0.3-0.4,0.4c-0.2,0.1-0.4,0.2-0.6,0.3c-0.2,0.1-0.5,0.2-0.7,0.2c-0.3,0-0.5,0.1-0.8,0.1
	c-0.4,0-0.9-0.1-1.3-0.2c-0.4-0.2-0.7-0.4-1-0.7c-0.3-0.3-0.5-0.7-0.6-1.1c-0.2-0.5-0.2-1-0.2-1.6c0-0.5,0.1-0.9,0.2-1.4
	c0.1-0.4,0.3-0.8,0.6-1.1c0.3-0.3,0.6-0.6,1-0.7C88.7,36.5,89.1,36.4,89.6,36.4z M89.6,36.9c-0.3,0-0.7,0-1,0.2
	c-0.3,0.1-0.5,0.3-0.7,0.5c-0.2,0.2-0.4,0.5-0.5,0.7c-0.1,0.3-0.2,0.7-0.2,1h4.5c0-0.3,0-0.7-0.1-1c-0.1-0.3-0.2-0.5-0.4-0.7
	c-0.2-0.2-0.4-0.4-0.7-0.5C90.2,37,89.9,36.9,89.6,36.9z"/>
<path class="st2" d="M97.9,37.4c0,0.1-0.1,0.1-0.1,0.1c-0.1,0-0.1,0-0.2-0.1c-0.1-0.1-0.2-0.1-0.3-0.2C97,37.1,96.9,37,96.7,37
	c-0.2-0.1-0.5-0.1-0.7-0.1c-0.2,0-0.5,0-0.7,0.1c-0.2,0.1-0.4,0.2-0.5,0.3c-0.1,0.1-0.3,0.3-0.3,0.4c-0.1,0.2-0.1,0.3-0.1,0.5
	c0,0.2,0,0.4,0.2,0.5c0.1,0.1,0.3,0.3,0.4,0.4c0.2,0.1,0.4,0.2,0.6,0.3l0.7,0.2c0.2,0.1,0.5,0.1,0.7,0.2c0.2,0.1,0.4,0.2,0.6,0.3
	c0.2,0.1,0.3,0.3,0.4,0.5c0.1,0.2,0.2,0.5,0.2,0.7c0,0.3-0.1,0.6-0.2,0.8c-0.1,0.3-0.3,0.5-0.5,0.7c-0.2,0.2-0.5,0.4-0.8,0.4
	c-0.3,0.1-0.7,0.2-1,0.2c-0.4,0-0.9-0.1-1.2-0.2c-0.3-0.1-0.7-0.4-0.9-0.6l0.2-0.2c0,0,0-0.1,0.1-0.1c0,0,0.1,0,0.1,0
	c0.1,0,0.2,0.1,0.2,0.1c0.1,0.1,0.2,0.2,0.3,0.2c0.2,0.1,0.3,0.2,0.5,0.2c0.3,0.1,0.5,0.1,0.8,0.1c0.3,0,0.5,0,0.8-0.1
	c0.2-0.1,0.4-0.2,0.6-0.3c0.1-0.1,0.3-0.3,0.3-0.5c0.1-0.2,0.1-0.4,0.1-0.6c0-0.2,0-0.4-0.2-0.6c-0.1-0.2-0.3-0.3-0.4-0.4
	c-0.2-0.1-0.4-0.2-0.6-0.3L95.7,40c-0.2-0.1-0.5-0.1-0.7-0.2c-0.2-0.1-0.4-0.2-0.6-0.3c-0.2-0.1-0.3-0.3-0.4-0.5
	c-0.1-0.2-0.2-0.5-0.2-0.7c0-0.2,0.1-0.5,0.2-0.7c0.1-0.2,0.3-0.4,0.4-0.6c0.2-0.2,0.4-0.3,0.7-0.4c0.3-0.1,0.6-0.2,0.9-0.1
	c0.4,0,0.8,0.1,1.1,0.2c0.3,0.1,0.6,0.3,0.9,0.6L97.9,37.4z"/>
<path class="st2" d="M107.5,43.4c-0.1,0-0.2-0.1-0.2-0.2c0,0,0,0,0,0l-0.1-1.1c-0.3,0.4-0.6,0.7-1.1,1c-0.4,0.2-0.9,0.4-1.4,0.4
	c-0.8,0-1.5-0.3-2-0.9c-0.5-0.8-0.8-1.7-0.7-2.6c0-0.5,0.1-0.9,0.2-1.4c0.1-0.4,0.3-0.8,0.6-1.1c0.3-0.3,0.6-0.6,0.9-0.8
	c0.4-0.2,0.8-0.3,1.3-0.3c0.4,0,0.8,0.1,1.2,0.3c0.3,0.2,0.7,0.4,0.9,0.8v-4.1h0.7v10H107.5z M105,42.9c0.4,0,0.9-0.1,1.2-0.4
	c0.4-0.3,0.7-0.6,1-1v-3.6c-0.2-0.3-0.5-0.6-0.9-0.8c-0.3-0.2-0.7-0.2-1.1-0.2c-0.4,0-0.7,0.1-1.1,0.2c-0.3,0.1-0.6,0.4-0.8,0.6
	c-0.2,0.3-0.4,0.6-0.5,1c-0.1,0.4-0.2,0.8-0.2,1.2c-0.1,0.8,0.1,1.6,0.6,2.2C103.8,42.7,104.4,42.9,105,42.9L105,42.9z"/>
<path class="st2" d="M111.3,34.2c0,0.1,0,0.2-0.1,0.2c0,0.1-0.1,0.1-0.1,0.2c-0.1,0.1-0.1,0.1-0.2,0.1c-0.1,0-0.2,0.1-0.2,0.1
	c-0.1,0-0.2,0-0.2-0.1c-0.1-0.1-0.3-0.2-0.3-0.3c0-0.1-0.1-0.2-0.1-0.2c0-0.1,0-0.2,0.1-0.2c0.1-0.1,0.2-0.3,0.3-0.3
	c0.1,0,0.2,0,0.2-0.1c0.1,0,0.2,0,0.2,0.1c0.1,0,0.1,0.1,0.2,0.1c0.1,0.1,0.1,0.1,0.1,0.2C111.3,34,111.3,34.1,111.3,34.2z
	 M111,36.5v6.8h-0.7v-6.9L111,36.5z"/>
<path class="st2" d="M115.7,36.4c0.3,0,0.6,0,0.8,0.1c0.2,0.1,0.5,0.2,0.7,0.3h1.8v0.2c0,0.1-0.1,0.2-0.2,0.2l-1,0.1
	c0.1,0.2,0.2,0.4,0.3,0.6c0.1,0.2,0.1,0.5,0.1,0.7c0,0.3-0.1,0.6-0.2,0.9c-0.1,0.3-0.3,0.5-0.5,0.7c-0.2,0.2-0.5,0.4-0.8,0.4
	c-0.3,0.1-0.7,0.2-1,0.2c-0.4,0-0.7-0.1-1.1-0.2c-0.2,0.1-0.3,0.2-0.5,0.4c-0.1,0.1-0.2,0.3-0.2,0.4c0,0.2,0.1,0.3,0.2,0.5
	c0.2,0.1,0.3,0.2,0.5,0.2c0.3,0.1,0.5,0.1,0.8,0.1h0.9c0.3,0,0.6,0,0.9,0.1c0.3,0,0.5,0.1,0.8,0.2c0.2,0.1,0.4,0.2,0.6,0.4
	c0.1,0.2,0.2,0.5,0.2,0.7c0,0.3-0.1,0.6-0.2,0.8c-0.1,0.3-0.4,0.5-0.6,0.7c-0.3,0.2-0.6,0.4-1,0.5c-0.4,0.1-0.8,0.2-1.3,0.2
	c-0.4,0-0.9,0-1.3-0.1c-0.3-0.1-0.6-0.2-0.9-0.4c-0.2-0.1-0.4-0.3-0.6-0.6c-0.1-0.2-0.2-0.5-0.2-0.7c0-0.3,0.1-0.7,0.4-0.9
	c0.3-0.3,0.6-0.5,1-0.6c-0.2-0.1-0.4-0.2-0.6-0.3c-0.1-0.2-0.2-0.4-0.2-0.6c0-0.1,0-0.2,0.1-0.3c0-0.1,0.1-0.2,0.2-0.3
	c0.1-0.1,0.2-0.2,0.3-0.3c0.1-0.1,0.2-0.2,0.4-0.2c-0.3-0.2-0.6-0.4-0.8-0.8c-0.2-0.3-0.3-0.7-0.3-1.1c0-0.3,0.1-0.6,0.2-0.9
	c0.1-0.3,0.3-0.5,0.5-0.7c0.2-0.2,0.5-0.4,0.8-0.4C115,36.4,115.4,36.4,115.7,36.4z M118.3,43.8c0-0.2-0.1-0.4-0.2-0.5
	c-0.1-0.1-0.3-0.2-0.4-0.3c-0.2-0.1-0.4-0.1-0.6-0.2c-0.2,0-0.5,0-0.8-0.1h-0.8c-0.3,0-0.5,0-0.8-0.1c-0.2,0.1-0.3,0.1-0.5,0.2
	c-0.1,0.1-0.3,0.2-0.4,0.3c-0.1,0.1-0.2,0.2-0.2,0.4c-0.1,0.1-0.1,0.3-0.1,0.4c0,0.2,0.1,0.4,0.1,0.6c0.1,0.2,0.3,0.3,0.5,0.4
	c0.2,0.1,0.5,0.2,0.7,0.3c0.3,0.1,0.7,0.1,1,0.1c0.3,0,0.7,0,1-0.1c0.3-0.1,0.5-0.2,0.8-0.3c0.2-0.1,0.4-0.3,0.5-0.5
	C118.2,44.3,118.3,44.1,118.3,43.8z M115.7,40.4c0.3,0,0.5,0,0.8-0.1c0.2-0.1,0.4-0.2,0.6-0.4c0.2-0.2,0.3-0.3,0.4-0.6
	c0.1-0.2,0.1-0.5,0.1-0.7c0-0.2,0-0.5-0.1-0.7c-0.1-0.2-0.2-0.4-0.4-0.5c-0.2-0.2-0.4-0.3-0.6-0.4c-0.5-0.2-1.1-0.2-1.6,0
	c-0.2,0.1-0.4,0.2-0.6,0.4c-0.2,0.1-0.3,0.3-0.4,0.5c-0.1,0.2-0.1,0.5-0.1,0.7c0,0.2,0,0.5,0.1,0.7c0.1,0.2,0.2,0.4,0.4,0.6
	c0.2,0.2,0.4,0.3,0.6,0.4C115.2,40.3,115.4,40.4,115.7,40.4z"/>
<path class="st2" d="M121.5,34.2c0,0.1,0,0.2-0.1,0.2c0,0.1-0.1,0.1-0.1,0.2c-0.1,0.1-0.1,0.1-0.2,0.1c-0.1,0.1-0.3,0.1-0.5,0
	c-0.1,0-0.1-0.1-0.2-0.1c-0.1-0.1-0.1-0.1-0.1-0.2c0-0.1,0-0.2-0.1-0.2c0-0.1,0-0.2,0.1-0.2c0-0.1,0.1-0.1,0.1-0.2
	c0.1-0.1,0.1-0.1,0.2-0.1c0.1-0.1,0.3-0.1,0.5,0c0.1,0,0.1,0.1,0.2,0.1c0.1,0.1,0.1,0.1,0.1,0.2C121.5,34,121.5,34.1,121.5,34.2z
	 M121.3,36.5v6.8h-0.7v-6.9L121.3,36.5z"/>
<path class="st2" d="M125.6,43.5c-0.4,0-0.8-0.1-1.1-0.4c-0.3-0.3-0.4-0.8-0.4-1.2v-4.7h-1c0,0-0.1,0-0.1,0c0,0,0-0.1-0.1-0.1v-0.2
	l1.2-0.1l0.2-2.4c0,0,0-0.1,0.1-0.1c0,0,0.1,0,0.1-0.1h0.3v2.6h2.2v0.5h-2.2v4.6c0,0.2,0,0.3,0.1,0.5c0,0.1,0.1,0.2,0.2,0.3
	c0.1,0.1,0.2,0.2,0.3,0.2c0.3,0.1,0.5,0.1,0.8,0c0.1,0,0.2-0.1,0.3-0.2c0.1-0.1,0.2-0.1,0.2-0.1c0,0,0.1-0.1,0.1-0.1
	c0,0,0.1,0,0.1,0.1l0.2,0.3c-0.2,0.2-0.4,0.4-0.7,0.5C126.2,43.5,125.9,43.5,125.6,43.5z"/>
<path class="st2" d="M133,43.4c-0.1,0-0.2-0.1-0.3-0.2l-0.1-0.8c-0.2,0.2-0.4,0.3-0.6,0.5c-0.2,0.1-0.4,0.3-0.6,0.4
	c-0.2,0.1-0.4,0.2-0.6,0.2c-0.3,0.1-0.5,0.1-0.8,0.1c-0.2,0-0.5,0-0.7-0.1c-0.2-0.1-0.4-0.2-0.6-0.3c-0.2-0.1-0.3-0.3-0.4-0.6
	c-0.1-0.3-0.2-0.5-0.2-0.8c0-0.3,0.1-0.6,0.2-0.8c0.2-0.3,0.5-0.5,0.8-0.6c0.4-0.2,0.9-0.4,1.4-0.4c0.7-0.1,1.3-0.2,2-0.2V39
	c0-0.5-0.1-1-0.4-1.5c-0.3-0.4-0.8-0.5-1.2-0.5c-0.3,0-0.6,0-0.8,0.1c-0.2,0.1-0.4,0.2-0.6,0.3c-0.1,0.1-0.3,0.2-0.4,0.3
	c-0.1,0.1-0.2,0.1-0.3,0.1c-0.1,0-0.2,0-0.2-0.1l-0.1-0.2c0.3-0.3,0.7-0.6,1.1-0.8c0.4-0.2,0.9-0.3,1.3-0.3c0.3,0,0.7,0,1,0.2
	c0.3,0.1,0.5,0.3,0.7,0.5c0.2,0.2,0.3,0.5,0.4,0.8c0.1,0.3,0.1,0.7,0.1,1v4.4H133z M130.2,43c0.2,0,0.5,0,0.7-0.1
	c0.2-0.1,0.4-0.1,0.6-0.2c0.2-0.1,0.4-0.2,0.5-0.4c0.2-0.1,0.3-0.3,0.5-0.5V40c-0.6,0-1.1,0.1-1.7,0.1c-0.4,0.1-0.8,0.2-1.2,0.3
	c-0.3,0.1-0.5,0.3-0.7,0.5c-0.1,0.2-0.2,0.4-0.2,0.6c0,0.2,0,0.4,0.1,0.6c0.1,0.2,0.2,0.3,0.3,0.4c0.1,0.1,0.3,0.2,0.4,0.2
	C129.9,43,130,43,130.2,43L130.2,43z"/>
<path class="st2" d="M136.4,34.2c0,0.1,0,0.2,0,0.2c0,0.1-0.1,0.1-0.1,0.2c-0.1,0.1-0.1,0.1-0.2,0.1c-0.1,0.1-0.3,0.1-0.5,0
	c-0.1,0-0.1-0.1-0.2-0.1c-0.1-0.1-0.1-0.1-0.1-0.2c0-0.1,0-0.2,0-0.2c0-0.1,0-0.2,0-0.2c0-0.1,0.1-0.1,0.1-0.2
	c0.1-0.1,0.1-0.1,0.2-0.1c0.1-0.1,0.3-0.1,0.5,0c0.1,0,0.1,0.1,0.2,0.1c0.1,0.1,0.1,0.1,0.1,0.2C136.4,34,136.4,34.1,136.4,34.2z
	 M136.1,36.5v6.8h-0.6v-6.9L136.1,36.5z"/>
<path class="st2" d="M142.4,37.4c0,0.1-0.1,0.1-0.2,0.1c-0.1,0-0.1,0-0.2-0.1c-0.1-0.1-0.2-0.1-0.3-0.2c-0.2-0.1-0.3-0.1-0.5-0.2
	c-0.2-0.1-0.5-0.1-0.7-0.1c-0.2,0-0.5,0-0.7,0.1c-0.2,0.1-0.4,0.2-0.5,0.3c-0.1,0.1-0.3,0.3-0.3,0.4c-0.1,0.2-0.1,0.3-0.1,0.5
	c0,0.2,0,0.4,0.2,0.5c0.1,0.1,0.3,0.3,0.4,0.4c0.2,0.1,0.4,0.2,0.6,0.3l0.7,0.2c0.2,0.1,0.5,0.1,0.7,0.2c0.2,0.1,0.4,0.2,0.6,0.3
	c0.2,0.1,0.3,0.3,0.4,0.5c0.1,0.2,0.2,0.5,0.2,0.7c0,0.3-0.1,0.6-0.2,0.8c-0.1,0.3-0.3,0.5-0.5,0.7c-0.2,0.2-0.5,0.4-0.8,0.4
	c-0.3,0.1-0.7,0.2-1,0.2c-0.4,0-0.9-0.1-1.2-0.2c-0.3-0.1-0.7-0.3-0.9-0.6l0.2-0.2c0,0,0-0.1,0.1-0.1c0,0,0.1,0,0.1,0
	c0.1,0,0.2,0.1,0.2,0.1c0.1,0.1,0.2,0.2,0.3,0.2c0.2,0.1,0.3,0.2,0.5,0.2c0.3,0.1,0.5,0.1,0.8,0.1c0.3,0,0.5,0,0.8-0.1
	c0.2-0.1,0.4-0.2,0.5-0.3c0.1-0.1,0.3-0.3,0.3-0.5c0.1-0.2,0.1-0.4,0.1-0.6c0-0.2,0-0.4-0.2-0.6c-0.1-0.2-0.3-0.3-0.4-0.4
	c-0.2-0.1-0.4-0.2-0.6-0.3l-0.7-0.2c-0.2-0.1-0.5-0.1-0.7-0.2c-0.2-0.1-0.4-0.2-0.6-0.3c-0.2-0.1-0.3-0.3-0.4-0.5
	c-0.1-0.2-0.2-0.5-0.2-0.7c0-0.2,0.1-0.5,0.2-0.7c0.1-0.2,0.3-0.4,0.5-0.6c0.2-0.2,0.4-0.3,0.7-0.4c0.3-0.1,0.6-0.2,1-0.1
	c0.4,0,0.8,0.1,1.1,0.2c0.3,0.1,0.6,0.3,0.9,0.6L142.4,37.4z"/>
<path class="st2" d="M62.4,16.4c-0.1,0.2-0.2,0.3-0.4,0.4C61.9,17,61.8,17,61.6,17c-0.2,0-0.4-0.1-0.6-0.2l-0.7-0.4
	c-0.3-0.1-0.6-0.3-0.9-0.4c-0.4-0.1-0.7-0.2-1.1-0.2c-0.6,0-1.2,0.1-1.6,0.5c-0.4,0.3-0.6,0.8-0.5,1.3c0,0.3,0.1,0.6,0.3,0.9
	c0.2,0.2,0.5,0.4,0.9,0.6c0.4,0.2,0.8,0.3,1.2,0.4c0.4,0.1,0.9,0.3,1.4,0.4c0.5,0.2,0.9,0.4,1.4,0.6c0.4,0.2,0.9,0.5,1.2,0.9
	c0.4,0.4,0.6,0.8,0.8,1.3c0.2,0.6,0.3,1.2,0.3,1.8c0,0.7-0.1,1.5-0.4,2.2c-0.3,0.7-0.7,1.3-1.2,1.8c-0.5,0.5-1.2,0.9-1.9,1.2
	c-0.8,0.3-1.7,0.4-2.6,0.4c-0.5,0-1.1-0.1-1.6-0.2c-0.5-0.1-1.1-0.3-1.6-0.4c-0.5-0.2-1-0.4-1.4-0.7c-0.4-0.3-0.8-0.6-1.2-0.9L53,26
	c0.1-0.1,0.2-0.3,0.4-0.3c0.1-0.1,0.3-0.1,0.5-0.1c0.3,0,0.5,0.1,0.7,0.2l0.8,0.5c0.3,0.2,0.7,0.3,1,0.5c0.4,0.2,0.9,0.2,1.4,0.2
	c0.6,0,1.2-0.1,1.7-0.5c0.4-0.4,0.6-0.9,0.6-1.5c0-0.4-0.1-0.7-0.3-1c-0.2-0.3-0.5-0.5-0.9-0.6c-0.4-0.2-0.8-0.3-1.2-0.4
	c-0.4-0.1-0.9-0.3-1.4-0.4c-0.5-0.1-0.9-0.3-1.4-0.6c-0.4-0.2-0.9-0.5-1.2-0.9c-0.4-0.4-0.7-0.8-0.8-1.3c-0.2-0.6-0.4-1.3-0.3-2
	c0-0.6,0.1-1.3,0.4-1.9c0.3-0.6,0.6-1.1,1.1-1.6c0.5-0.5,1.1-0.9,1.8-1.1c0.8-0.3,1.6-0.4,2.5-0.4c0.5,0,1,0,1.5,0.1
	c0.5,0.1,0.9,0.2,1.4,0.4c0.4,0.2,0.8,0.3,1.2,0.6c0.4,0.2,0.7,0.5,1,0.8L62.4,16.4z"/>
<path class="st2" d="M81.2,29.9h-3c-0.3,0-0.6-0.1-0.8-0.2C77.2,29.5,77,29.3,77,29l-1-2.9h-6.4l-1,2.9c-0.1,0.2-0.2,0.4-0.4,0.6
	c-0.2,0.2-0.5,0.3-0.8,0.3h-3L70.8,13h4L81.2,29.9z M70.4,23.4H75l-1.5-4.6c-0.1-0.3-0.2-0.6-0.4-1s-0.3-0.8-0.4-1.3
	c-0.1,0.5-0.2,0.9-0.4,1.3s-0.2,0.8-0.4,1L70.4,23.4z"/>
<path class="st2" d="M91.7,23.1c0.1,0.3,0.3,0.6,0.4,1c0.1-0.3,0.3-0.7,0.4-1s0.3-0.6,0.4-0.9l4.3-8.5c0.1-0.1,0.1-0.2,0.2-0.3
	c0.1-0.1,0.2-0.1,0.3-0.2c0.1,0,0.2-0.1,0.3-0.1h3.4v16.8h-3.4v-9.7c0-0.5,0-1,0.1-1.5l-4.5,8.7c-0.1,0.3-0.3,0.5-0.6,0.6
	c-0.2,0.1-0.5,0.2-0.8,0.2h-0.5c-0.3,0-0.6-0.1-0.8-0.2c-0.2-0.1-0.4-0.4-0.6-0.6L86,18.7c0,0.3,0.1,0.5,0.1,0.8s0,0.5,0,0.7v9.7
	h-3.4V13H86c0.1,0,0.2,0,0.3,0.1c0.1,0,0.2,0.1,0.3,0.2c0.1,0.1,0.2,0.2,0.2,0.3l4.3,8.6C91.4,22.5,91.5,22.8,91.7,23.1z"/>
<path class="st2" d="M108.2,24.2v5.6h-3.9V13h5.9c1,0,2.1,0.1,3.1,0.4c0.8,0.2,1.5,0.6,2.1,1.2c0.5,0.5,1,1.1,1.2,1.7
	c0.3,0.7,0.4,1.4,0.4,2.2c0,0.8-0.1,1.6-0.4,2.3c-0.3,0.7-0.7,1.3-1.2,1.8c-0.6,0.5-1.3,0.9-2.1,1.2c-1,0.3-2,0.5-3,0.4L108.2,24.2z
	 M108.2,21.3h2c0.8,0.1,1.6-0.2,2.2-0.7c0.5-0.6,0.7-1.3,0.7-2c0-0.3-0.1-0.7-0.2-1c-0.1-0.3-0.3-0.6-0.5-0.8
	c-0.3-0.2-0.6-0.4-0.9-0.5c-0.4-0.1-0.8-0.2-1.3-0.2h-2V21.3z"/>
<path class="st2" d="M122.9,26.7h6.2v3.1H119V13h3.9V26.7z"/>
<path class="st2" d="M141.8,13v3h-6.9v3.9h5.3v2.9h-5.3v4h6.9v3H131V13H141.8z"/>
<path class="st2" d="M157.9,16.4c-0.1,0.2-0.2,0.3-0.4,0.4c-0.1,0.1-0.3,0.1-0.5,0.1c-0.2,0-0.4-0.1-0.6-0.2l-0.7-0.4
	c-0.3-0.1-0.6-0.3-0.9-0.4c-0.4-0.1-0.7-0.2-1.1-0.2c-0.6,0-1.2,0.1-1.6,0.5c-0.4,0.3-0.6,0.8-0.5,1.3c0,0.3,0.1,0.6,0.3,0.9
	c0.2,0.2,0.5,0.4,0.9,0.6c0.4,0.2,0.8,0.3,1.2,0.4c0.4,0.1,0.9,0.3,1.4,0.4c0.5,0.2,0.9,0.4,1.4,0.6c0.4,0.2,0.8,0.5,1.2,0.9
	c0.4,0.4,0.7,0.8,0.9,1.3c0.2,0.6,0.3,1.2,0.3,1.8c0,0.7-0.1,1.5-0.4,2.2c-0.3,0.7-0.7,1.3-1.2,1.8c-0.5,0.5-1.2,0.9-1.9,1.2
	c-0.8,0.3-1.7,0.4-2.5,0.4c-0.5,0-1.1-0.1-1.6-0.2c-0.5-0.1-1.1-0.3-1.6-0.4c-0.5-0.2-1-0.4-1.4-0.7c-0.4-0.3-0.8-0.6-1.2-0.9
	l1.2-1.8c0.1-0.1,0.2-0.3,0.4-0.3c0.2-0.1,0.3-0.1,0.5-0.1c0.2,0,0.5,0.1,0.7,0.2l0.8,0.5c0.3,0.2,0.7,0.3,1,0.5
	c0.4,0.2,0.9,0.2,1.4,0.2c0.6,0,1.2-0.1,1.6-0.5c0.4-0.4,0.6-0.9,0.6-1.5c0-0.4-0.1-0.7-0.3-1c-0.2-0.3-0.5-0.5-0.9-0.6
	c-0.4-0.2-0.8-0.3-1.2-0.4c-0.4-0.1-0.9-0.3-1.4-0.4c-0.5-0.1-0.9-0.3-1.4-0.6c-0.4-0.2-0.9-0.5-1.2-0.9c-0.4-0.4-0.7-0.8-0.9-1.3
	c-0.2-0.6-0.3-1.3-0.3-2c0-1.3,0.5-2.6,1.5-3.4c0.5-0.5,1.1-0.9,1.8-1.1c0.8-0.3,1.6-0.4,2.5-0.4c0.5,0,1,0,1.5,0.1
	c0.9,0.2,1.8,0.5,2.6,0.9c0.4,0.2,0.7,0.5,1,0.8L157.9,16.4z"/>
<path class="st2" d="M173.2,13v3.1h-4.7v13.7h-3.9V16.1h-4.7V13H173.2z"/>
<path class="st2" d="M190.8,21.4c0,1.2-0.2,2.3-0.6,3.4c-0.4,1-1,1.9-1.8,2.7c-0.8,0.8-1.7,1.4-2.8,1.8c-2.3,0.9-4.9,0.9-7.2,0
	c-2.1-0.8-3.7-2.5-4.5-4.6c-0.8-2.2-0.8-4.6,0-6.8c0.4-1,1-2,1.8-2.7c0.8-0.8,1.7-1.4,2.8-1.8c2.3-0.9,4.9-0.9,7.2,0
	c1,0.4,2,1,2.8,1.8c0.8,0.8,1.4,1.7,1.8,2.7C190.6,19.1,190.8,20.3,190.8,21.4z M186.8,21.4c0-0.8-0.1-1.5-0.3-2.2
	c-0.2-0.6-0.5-1.2-0.9-1.7c-0.4-0.5-0.9-0.8-1.5-1.1c-1.3-0.5-2.7-0.5-4,0c-0.6,0.2-1.1,0.6-1.5,1.1c-0.4,0.5-0.7,1.1-0.9,1.7
	c-0.2,0.7-0.3,1.5-0.3,2.2c0,0.8,0.1,1.5,0.3,2.3c0.2,0.6,0.5,1.2,1,1.7c0.4,0.5,0.9,0.8,1.5,1.1c1.3,0.5,2.7,0.5,4,0
	c0.6-0.2,1.1-0.6,1.5-1.1c0.4-0.5,0.7-1.1,0.9-1.7C186.7,22.9,186.8,22.2,186.8,21.4L186.8,21.4z"/>
<path class="st2" d="M196.6,23.6v6.2h-3.9V13h5.5c1,0,2.1,0.1,3.1,0.4c0.8,0.2,1.5,0.5,2.1,1c0.5,0.4,0.9,1,1.2,1.6
	c0.3,0.6,0.4,1.3,0.4,2c0,0.5-0.1,1-0.2,1.6c-0.1,0.5-0.4,0.9-0.7,1.4c-0.3,0.4-0.7,0.8-1.1,1.1c-0.4,0.3-0.9,0.6-1.5,0.8
	c0.3,0.1,0.5,0.3,0.7,0.5c0.2,0.2,0.4,0.4,0.6,0.7l3.6,5.9h-3.5c-0.6,0-1.1-0.2-1.4-0.7l-2.8-4.9c-0.1-0.2-0.2-0.4-0.4-0.5
	c-0.2-0.1-0.5-0.1-0.7-0.1L196.6,23.6z M196.6,20.9h1.6c0.5,0,0.9-0.1,1.4-0.2c0.3-0.1,0.7-0.3,0.9-0.6c0.2-0.2,0.4-0.5,0.5-0.8
	c0.1-0.3,0.2-0.7,0.2-1c0-0.7-0.2-1.3-0.7-1.7c-0.6-0.5-1.4-0.7-2.2-0.6h-1.6V20.9z"/>
<path class="st2" d="M218.8,13v3h-6.9v3.9h5.3v2.9h-5.3v4h6.9v3H208V13H218.8z"/>
</svg>
