<?xml version="1.0" encoding="utf-8"?>
<!-- Generator: Adobe Illustrator 23.0.1, SVG Export Plug-In . SVG Version: 6.00 Build 0)  -->
<svg version="1.1" id="Layer_1" xmlns="http://www.w3.org/2000/svg" xmlns:xlink="http://www.w3.org/1999/xlink" x="0px" y="0px"
	 viewBox="0 0 218.9 52" style="enable-background:new 0 0 218.9 52;" xml:space="preserve">
<style type="text/css">
	.st0{fill:#FFFFFF;}
	.st1{fill:#8CC63F;}
	.st2{fill:#FCCD0B;}
	.st3{fill:#ED1E24;}
</style>
<title>Logo02_White</title>
<path class="st0" d="M125.6,38.6c0,0.1-0.1,0.2-0.2,0.1c-0.1,0-0.2,0-0.2-0.1l-0.3-0.2c-0.1-0.1-0.3-0.1-0.5-0.2
	c-0.2-0.1-0.4-0.1-0.6-0.1c-0.2,0-0.4,0-0.6,0.1c-0.2,0-0.3,0.1-0.4,0.2c-0.1,0.1-0.2,0.2-0.3,0.3c-0.1,0.1-0.1,0.3-0.1,0.4
	c0,0.2,0,0.3,0.1,0.5c0.1,0.1,0.3,0.2,0.4,0.3c0.2,0.1,0.4,0.2,0.6,0.2l0.7,0.2c0.2,0.1,0.5,0.2,0.7,0.2c0.2,0.1,0.4,0.2,0.6,0.4
	c0.2,0.1,0.3,0.3,0.4,0.5c0.1,0.2,0.2,0.5,0.2,0.7c0,0.3-0.1,0.6-0.2,0.9c-0.1,0.3-0.3,0.5-0.5,0.7c-0.2,0.2-0.5,0.4-0.8,0.5
	c-0.4,0.1-0.7,0.2-1.1,0.2c-0.5,0-0.9-0.1-1.3-0.2c-0.4-0.1-0.7-0.4-1-0.6l0.3-0.5c0-0.1,0.1-0.1,0.1-0.1c0.1,0,0.1-0.1,0.2,0
	c0.1,0,0.2,0,0.3,0.1l0.3,0.2c0.2,0.1,0.3,0.2,0.5,0.2c0.2,0.1,0.5,0.1,0.7,0.1c0.2,0,0.4,0,0.6-0.1c0.2-0.1,0.3-0.1,0.4-0.2
	c0.1-0.1,0.2-0.2,0.3-0.4c0.1-0.1,0.1-0.3,0.1-0.4c0-0.2-0.1-0.3-0.2-0.5c-0.1-0.1-0.3-0.2-0.4-0.3c-0.2-0.1-0.4-0.2-0.6-0.2
	l-0.7-0.2c-0.2-0.1-0.4-0.2-0.7-0.2c-0.2-0.1-0.4-0.2-0.6-0.4c-0.2-0.1-0.3-0.3-0.4-0.5c-0.1-0.2-0.2-0.5-0.2-0.8
	c0-0.3,0.1-0.5,0.2-0.8c0.1-0.2,0.3-0.5,0.5-0.6c0.2-0.2,0.5-0.3,0.8-0.4c0.3-0.1,0.7-0.2,1-0.2c0.4,0,0.8,0.1,1.2,0.2
	c0.4,0.1,0.7,0.3,1,0.6L125.6,38.6z"/>
<path class="st0" d="M132.7,44.5h-0.5c-0.1,0-0.2,0-0.3,0c-0.1-0.1-0.1-0.1-0.1-0.2l-0.1-0.6L131,44c-0.2,0.1-0.4,0.2-0.5,0.3
	c-0.2,0.1-0.4,0.2-0.6,0.2c-0.2,0-0.5,0.1-0.7,0.1c-0.3,0-0.5,0-0.8-0.1c-0.2-0.1-0.4-0.2-0.6-0.3c-0.2-0.2-0.3-0.4-0.4-0.6
	c-0.1-0.3-0.2-0.5-0.1-0.8c0-0.3,0.1-0.6,0.2-0.8c0.2-0.3,0.4-0.5,0.7-0.7c0.4-0.2,0.9-0.4,1.3-0.5c0.7-0.1,1.3-0.2,2-0.2V40
	c0-0.4-0.1-0.9-0.4-1.2c-0.3-0.3-0.6-0.4-1-0.4c-0.3,0-0.5,0-0.8,0.1c-0.2,0.1-0.4,0.2-0.5,0.3l-0.4,0.2c-0.1,0.1-0.2,0.1-0.3,0.1
	c-0.1,0-0.2,0-0.2-0.1c-0.1,0-0.1-0.1-0.1-0.2l-0.2-0.4c0.4-0.4,0.8-0.6,1.2-0.8c0.5-0.2,1-0.3,1.5-0.3c0.3,0,0.7,0.1,1,0.2
	c0.3,0.1,0.6,0.3,0.8,0.5c0.2,0.2,0.4,0.5,0.5,0.8c0.1,0.4,0.2,0.7,0.1,1.1L132.7,44.5z M129.5,43.7c0.2,0,0.4,0,0.6-0.1
	c0.2,0,0.3-0.1,0.5-0.2c0.2-0.1,0.3-0.2,0.5-0.3c0.2-0.1,0.3-0.3,0.4-0.4v-1.4c-0.5,0-1,0-1.4,0.1c-0.3,0.1-0.7,0.1-1,0.3
	c-0.2,0.1-0.4,0.2-0.5,0.4c-0.1,0.2-0.2,0.3-0.2,0.5c0,0.2,0,0.3,0.1,0.5c0.1,0.1,0.1,0.2,0.2,0.3c0.1,0.1,0.2,0.2,0.4,0.2
	C129.2,43.7,129.3,43.7,129.5,43.7z"/>
<path class="st0" d="M134.6,44.5v-7h0.7c0.2,0,0.3,0.1,0.3,0.3l0.1,0.7c0.2-0.3,0.5-0.6,0.9-0.8c0.3-0.2,0.7-0.3,1.1-0.3
	c0.4,0,0.8,0.1,1.1,0.4c0.3,0.3,0.5,0.7,0.6,1.1c0.1-0.2,0.2-0.5,0.4-0.7c0.2-0.2,0.3-0.3,0.5-0.5c0.2-0.1,0.4-0.2,0.6-0.3
	c0.2-0.1,0.5-0.1,0.7-0.1c0.3,0,0.7,0.1,1,0.2c0.3,0.1,0.5,0.3,0.7,0.5c0.2,0.2,0.4,0.5,0.5,0.8c0.1,0.4,0.2,0.7,0.2,1.1v4.4h-1.2
	V40c0-0.4-0.1-0.9-0.4-1.2c-0.3-0.3-0.6-0.4-1-0.4c-0.2,0-0.4,0-0.6,0.1c-0.2,0.1-0.3,0.2-0.5,0.3c-0.1,0.1-0.3,0.3-0.3,0.5
	c-0.1,0.2-0.1,0.5-0.1,0.7v4.4h-1.2V40c0-0.4-0.1-0.9-0.3-1.3c-0.2-0.3-0.6-0.4-1-0.4c-0.3,0-0.6,0.1-0.9,0.2
	c-0.3,0.2-0.5,0.4-0.7,0.7v5.2L134.6,44.5z"/>
<path class="st0" d="M145.9,46.8v-9.4h0.7c0.2,0,0.3,0.1,0.3,0.3l0.1,0.8c0.3-0.3,0.6-0.6,1-0.9c0.4-0.2,0.9-0.3,1.3-0.3
	c0.4,0,0.7,0.1,1.1,0.2c0.3,0.2,0.6,0.4,0.8,0.7c0.2,0.3,0.4,0.7,0.5,1.1c0.1,0.5,0.2,1,0.2,1.5c0,0.5-0.1,1-0.2,1.4
	c-0.1,0.4-0.3,0.8-0.6,1.1c-0.3,0.3-0.6,0.6-0.9,0.8c-0.4,0.2-0.8,0.3-1.3,0.3c-0.4,0-0.8-0.1-1.1-0.2c-0.3-0.1-0.6-0.3-0.8-0.6v3.1
	H145.9z M149,38.4c-0.4,0-0.7,0.1-1,0.3c-0.3,0.2-0.6,0.5-0.8,0.8v3.4c0.2,0.3,0.4,0.5,0.7,0.6c0.3,0.1,0.6,0.2,0.9,0.2
	c0.6,0,1.1-0.2,1.5-0.7c0.4-0.6,0.6-1.3,0.5-2c0-0.4,0-0.8-0.1-1.2c-0.1-0.3-0.2-0.6-0.3-0.8c-0.1-0.2-0.3-0.4-0.6-0.5
	C149.5,38.4,149.2,38.4,149,38.4L149,38.4z"/>
<path class="st0" d="M154.8,34.3v10.1h-1.2V34.3H154.8z"/>
<path class="st0" d="M159.8,37.4c0.4,0,0.8,0.1,1.1,0.2c0.3,0.1,0.7,0.3,0.9,0.6c0.3,0.3,0.5,0.6,0.6,1c0.2,0.4,0.2,0.9,0.2,1.3
	c0,0.1,0,0.3-0.1,0.4c-0.1,0.1-0.1,0.1-0.2,0.1h-4.6c0,0.4,0.1,0.8,0.2,1.1c0.1,0.3,0.2,0.6,0.5,0.8c0.2,0.2,0.4,0.4,0.7,0.5
	c0.3,0.1,0.6,0.2,0.9,0.2c0.3,0,0.5,0,0.8-0.1c0.2-0.1,0.4-0.1,0.6-0.2c0.2-0.1,0.3-0.2,0.4-0.2c0.1-0.1,0.2-0.1,0.3-0.1
	c0.1,0,0.2,0,0.2,0.1l0.3,0.4c-0.2,0.2-0.3,0.4-0.5,0.5c-0.2,0.1-0.4,0.3-0.7,0.3c-0.2,0.1-0.5,0.1-0.8,0.2c-0.3,0-0.5,0.1-0.8,0.1
	c-0.5,0-0.9-0.1-1.3-0.2c-0.4-0.2-0.7-0.4-1-0.7c-0.3-0.3-0.5-0.7-0.7-1.2c-0.2-0.5-0.3-1.1-0.2-1.6c0-0.5,0.1-0.9,0.2-1.4
	c0.1-0.4,0.4-0.8,0.6-1.1c0.3-0.3,0.6-0.6,1-0.7C158.9,37.5,159.3,37.4,159.8,37.4z M159.8,38.3c-0.5,0-1,0.2-1.4,0.5
	c-0.4,0.4-0.6,0.9-0.6,1.4h3.9c0-0.3,0-0.5-0.1-0.8c-0.1-0.2-0.2-0.4-0.3-0.6c-0.2-0.2-0.3-0.3-0.6-0.4
	C160.3,38.3,160.1,38.3,159.8,38.3L159.8,38.3z"/>
<path class="st0" d="M168.2,38.6c0,0.1-0.1,0.2-0.2,0.1c-0.1,0-0.2,0-0.2-0.1l-0.3-0.2c-0.1-0.1-0.3-0.1-0.5-0.2
	c-0.2-0.1-0.4-0.1-0.6-0.1c-0.2,0-0.4,0-0.6,0.1c-0.2,0-0.3,0.1-0.4,0.2c-0.1,0.1-0.2,0.2-0.3,0.3c-0.1,0.1-0.1,0.3-0.1,0.4
	c0,0.2,0,0.3,0.1,0.5c0.1,0.1,0.3,0.2,0.4,0.3c0.2,0.1,0.4,0.2,0.6,0.2l0.7,0.2l0.7,0.2c0.2,0.1,0.4,0.2,0.6,0.4
	c0.2,0.1,0.3,0.3,0.4,0.5c0.1,0.2,0.2,0.5,0.1,0.7c0,0.3-0.1,0.6-0.2,0.9c-0.1,0.3-0.3,0.5-0.5,0.7c-0.2,0.2-0.5,0.4-0.8,0.5
	c-0.4,0.1-0.7,0.2-1.1,0.2c-0.5,0-0.9-0.1-1.3-0.2c-0.4-0.1-0.7-0.4-1-0.6l0.3-0.5c0-0.1,0.1-0.1,0.1-0.1c0.1,0,0.1-0.1,0.2,0
	c0.1,0,0.2,0,0.3,0.1l0.3,0.2c0.2,0.1,0.3,0.2,0.5,0.2c0.2,0.1,0.5,0.1,0.7,0.1c0.2,0,0.4,0,0.6-0.1c0.2-0.1,0.3-0.1,0.5-0.2
	c0.1-0.1,0.2-0.2,0.3-0.4c0.1-0.1,0.1-0.3,0.1-0.4c0-0.2,0-0.3-0.1-0.5c-0.1-0.1-0.3-0.2-0.4-0.3c-0.2-0.1-0.4-0.2-0.6-0.2
	c-0.2-0.1-0.5-0.1-0.7-0.2s-0.5-0.2-0.7-0.2c-0.2-0.1-0.4-0.2-0.6-0.4c-0.2-0.1-0.3-0.3-0.4-0.5c-0.1-0.2-0.2-0.5-0.2-0.8
	c0-0.3,0.1-0.5,0.2-0.8c0.1-0.2,0.3-0.5,0.5-0.6c0.2-0.2,0.5-0.3,0.8-0.4c0.3-0.1,0.7-0.2,1-0.2c0.5,0,0.9,0.1,1.3,0.3
	c0.4,0.1,0.7,0.3,1,0.6L168.2,38.6z"/>
<path class="st0" d="M177.8,44.5c-0.2,0-0.3-0.1-0.3-0.2l-0.1-0.9c-0.3,0.3-0.6,0.6-1,0.9c-0.4,0.2-0.9,0.3-1.3,0.3
	c-0.4,0-0.7-0.1-1.1-0.2c-0.3-0.2-0.6-0.4-0.8-0.7c-0.2-0.3-0.4-0.7-0.5-1.1c-0.1-0.5-0.2-1-0.2-1.5c0-0.5,0.1-1,0.2-1.4
	c0.1-0.4,0.3-0.8,0.6-1.1c0.3-0.3,0.6-0.6,1-0.8c0.4-0.2,0.8-0.3,1.3-0.3c0.4,0,0.8,0.1,1.1,0.2c0.3,0.1,0.6,0.3,0.8,0.6v-3.9h1.2
	v10.1H177.8z M175.4,43.6c0.4,0,0.7-0.1,1-0.3c0.3-0.2,0.6-0.5,0.8-0.8v-3.4c-0.2-0.3-0.4-0.5-0.7-0.6c-0.3-0.1-0.6-0.2-0.9-0.2
	c-0.6,0-1.1,0.2-1.5,0.7c-0.4,0.6-0.6,1.3-0.5,2c0,0.4,0,0.8,0.1,1.2c0.1,0.3,0.2,0.6,0.3,0.8c0.1,0.2,0.3,0.4,0.6,0.5
	C174.9,43.5,175.1,43.6,175.4,43.6L175.4,43.6z"/>
<path class="st0" d="M182.2,35.3c0,0.1,0,0.2-0.1,0.3c-0.1,0.1-0.1,0.2-0.2,0.3c-0.1,0.1-0.2,0.1-0.3,0.2c-0.1,0-0.2,0.1-0.3,0.1
	c-0.1,0-0.2,0-0.3-0.1c-0.1,0-0.2-0.1-0.3-0.2c-0.1-0.1-0.1-0.2-0.2-0.3c-0.1-0.2-0.1-0.5,0-0.7c0-0.1,0.1-0.2,0.2-0.3
	c0.1-0.1,0.2-0.1,0.3-0.2c0.1,0,0.2-0.1,0.3-0.1c0.1,0,0.2,0,0.3,0.1c0.1,0,0.2,0.1,0.3,0.2c0.1,0.1,0.2,0.2,0.2,0.3
	C182.2,35.1,182.2,35.2,182.2,35.3z M181.9,37.5v7h-1.2v-7H181.9z"/>
<path class="st0" d="M186.4,37.4c0.3,0,0.6,0,0.9,0.1c0.3,0.1,0.5,0.2,0.7,0.3h1.9v0.5c0,0.1-0.1,0.2-0.3,0.3l-0.8,0.1
	c0.2,0.3,0.2,0.7,0.2,1c0,0.3-0.1,0.6-0.2,0.9c-0.1,0.3-0.3,0.5-0.5,0.7c-0.2,0.2-0.5,0.4-0.8,0.5c-0.7,0.2-1.3,0.2-2,0
	c-0.1,0.1-0.2,0.2-0.3,0.3c-0.1,0.1-0.1,0.2-0.1,0.3c0,0.2,0.1,0.3,0.2,0.4c0.2,0.1,0.3,0.2,0.5,0.2c0.2,0,0.5,0.1,0.8,0.1h0.9
	c0.3,0,0.6,0,0.9,0.1c0.3,0,0.5,0.1,0.8,0.2c0.2,0.1,0.4,0.3,0.5,0.5c0.1,0.2,0.2,0.5,0.2,0.8c0,0.3-0.1,0.6-0.2,0.9
	c-0.2,0.3-0.4,0.6-0.6,0.8c-0.3,0.2-0.6,0.4-1,0.5c-0.4,0.1-0.9,0.2-1.4,0.2c-0.5,0-0.9,0-1.3-0.1c-0.4-0.1-0.7-0.2-1-0.4
	c-0.2-0.2-0.4-0.4-0.6-0.6c-0.1-0.2-0.2-0.5-0.2-0.7c0-0.3,0.1-0.6,0.3-0.9c0.3-0.3,0.6-0.5,0.9-0.6c-0.2-0.1-0.3-0.2-0.5-0.4
	c-0.1-0.2-0.2-0.4-0.2-0.6c0-0.1,0-0.2,0.1-0.3c0-0.1,0.1-0.2,0.2-0.3c0.1-0.1,0.2-0.2,0.3-0.3c0.1-0.1,0.2-0.2,0.4-0.2
	c-0.3-0.2-0.6-0.4-0.8-0.8c-0.2-0.3-0.3-0.7-0.3-1.1c0-0.6,0.3-1.2,0.7-1.6c0.3-0.2,0.5-0.3,0.8-0.5
	C185.7,37.4,186.1,37.4,186.4,37.4z M188.6,44.8c0-0.2,0-0.3-0.1-0.4c-0.1-0.1-0.2-0.2-0.4-0.2c-0.2-0.1-0.4-0.1-0.6-0.1
	c-0.2,0-0.5,0-0.7,0h-0.7c-0.2,0-0.5,0-0.7-0.1c-0.2,0.1-0.5,0.3-0.6,0.5c-0.2,0.2-0.2,0.4-0.2,0.6c0,0.2,0,0.3,0.1,0.4
	c0.1,0.1,0.2,0.3,0.4,0.4c0.2,0.1,0.4,0.2,0.6,0.2c0.3,0.1,0.6,0.1,0.9,0.1c0.3,0,0.6,0,0.9-0.1c0.2-0.1,0.5-0.1,0.7-0.3
	c0.2-0.1,0.3-0.2,0.4-0.4C188.6,45.2,188.6,45,188.6,44.8L188.6,44.8z M186.4,41.1c0.2,0,0.4,0,0.6-0.1c0.2-0.1,0.4-0.2,0.5-0.3
	c0.1-0.1,0.2-0.3,0.3-0.5c0.1-0.2,0.1-0.4,0.1-0.6c0-0.4-0.1-0.7-0.4-1c-0.3-0.3-0.7-0.4-1.1-0.4c-0.4,0-0.8,0.1-1.1,0.4
	c-0.3,0.3-0.4,0.6-0.4,1c0,0.2,0,0.4,0.1,0.6c0.1,0.2,0.2,0.3,0.3,0.5c0.1,0.1,0.3,0.2,0.5,0.3C186,41,186.2,41.1,186.4,41.1z"/>
<path class="st0" d="M192.8,35.3c0,0.1,0,0.2-0.1,0.3c-0.1,0.1-0.1,0.2-0.2,0.3c-0.1,0.1-0.2,0.1-0.3,0.2c-0.1,0-0.2,0.1-0.3,0.1
	c-0.1,0-0.2,0-0.3-0.1c-0.1,0-0.2-0.1-0.3-0.2c-0.1-0.1-0.1-0.2-0.2-0.3c-0.1-0.2-0.1-0.5,0-0.7c0-0.1,0.1-0.2,0.2-0.3
	c0.1-0.1,0.2-0.1,0.3-0.2c0.1,0,0.2-0.1,0.3-0.1c0.1,0,0.2,0,0.3,0.1c0.1,0,0.2,0.1,0.3,0.2c0.1,0.1,0.2,0.2,0.2,0.3
	C192.8,35.1,192.8,35.2,192.8,35.3z M192.5,37.5v7h-1.2v-7H192.5z"/>
<path class="st0" d="M196.8,44.6c-0.5,0-0.9-0.1-1.3-0.5c-0.3-0.4-0.5-0.8-0.4-1.3v-4.3h-0.8c-0.1,0-0.3-0.1-0.3-0.2c0,0,0,0,0,0
	v-0.5l1.1-0.1l0.3-2.2c0-0.1,0-0.1,0.1-0.2c0.1,0,0.1-0.1,0.2-0.1h0.6v2.4h2v0.9h-2v4.2c0,0.2,0.1,0.5,0.2,0.6
	c0.1,0.1,0.3,0.2,0.5,0.2c0.1,0,0.2,0,0.3-0.1c0.1,0,0.2-0.1,0.2-0.1l0.2-0.1c0,0,0.1,0,0.1,0c0.1,0,0.1,0,0.2,0.1l0.4,0.6
	c-0.2,0.2-0.5,0.4-0.8,0.5C197.4,44.5,197.1,44.6,196.8,44.6z"/>
<path class="st0" d="M204.9,44.5h-0.5c-0.1,0-0.2,0-0.3,0c-0.1-0.1-0.1-0.1-0.1-0.2l-0.1-0.6l-0.5,0.4c-0.2,0.1-0.4,0.2-0.5,0.3
	c-0.2,0.1-0.4,0.2-0.6,0.2c-0.2,0.1-0.5,0.1-0.7,0.1c-0.3,0-0.5,0-0.8-0.1c-0.2-0.1-0.4-0.2-0.6-0.3c-0.2-0.2-0.3-0.4-0.4-0.6
	c-0.1-0.3-0.2-0.5-0.2-0.8c0-0.3,0.1-0.6,0.2-0.8c0.2-0.3,0.4-0.5,0.7-0.7c0.4-0.2,0.9-0.4,1.3-0.5c0.7-0.1,1.3-0.2,2-0.2V40
	c0-0.4-0.1-0.9-0.4-1.2c-0.3-0.3-0.6-0.4-1-0.4c-0.3,0-0.5,0-0.8,0.1c-0.2,0.1-0.4,0.2-0.5,0.3l-0.4,0.2c-0.1,0.1-0.2,0.1-0.3,0.1
	c-0.1,0-0.2,0-0.2-0.1c-0.1,0-0.1-0.1-0.1-0.2l-0.2-0.4c0.4-0.4,0.8-0.6,1.2-0.8c0.5-0.2,1-0.3,1.5-0.3c0.3,0,0.7,0.1,1,0.2
	c0.3,0.1,0.6,0.3,0.8,0.5c0.2,0.2,0.4,0.5,0.5,0.8c0.1,0.3,0.2,0.7,0.2,1.1L204.9,44.5z M201.7,43.7c0.2,0,0.4,0,0.6-0.1
	c0.2,0,0.3-0.1,0.5-0.2c0.2-0.1,0.3-0.2,0.5-0.3c0.2-0.1,0.3-0.3,0.4-0.4v-1.4c-0.5,0-1,0-1.4,0.1c-0.3,0.1-0.7,0.1-1,0.3
	c-0.2,0.1-0.4,0.2-0.5,0.4c-0.1,0.2-0.2,0.3-0.2,0.5c0,0.2,0,0.3,0.1,0.5c0.1,0.1,0.1,0.2,0.2,0.3c0.1,0.1,0.2,0.2,0.4,0.2
	C201.4,43.7,201.6,43.7,201.7,43.7z"/>
<path class="st0" d="M208.4,35.3c0,0.1,0,0.2-0.1,0.3c0,0.1-0.1,0.2-0.2,0.3c-0.1,0.1-0.2,0.1-0.3,0.2c-0.1,0-0.2,0.1-0.3,0.1
	c-0.1,0-0.2,0-0.3-0.1c-0.1,0-0.2-0.1-0.3-0.2c-0.1-0.1-0.1-0.2-0.2-0.3c-0.1-0.2-0.1-0.5,0-0.7c0-0.1,0.1-0.2,0.2-0.3
	c0.1-0.1,0.2-0.1,0.3-0.2c0.1,0,0.2-0.1,0.3-0.1c0.1,0,0.2,0,0.3,0.1c0.1,0,0.2,0.1,0.3,0.2c0.1,0.1,0.1,0.2,0.2,0.3
	C208.4,35.1,208.4,35.2,208.4,35.3z M208.2,37.5v7h-1.2v-7H208.2z"/>
<path class="st0" d="M214.3,38.6c-0.1,0.1-0.2,0.2-0.3,0.1c-0.1,0-0.2,0-0.2-0.1l-0.3-0.2c-0.1-0.1-0.3-0.1-0.5-0.2
	c-0.2-0.1-0.4-0.1-0.6-0.1c-0.2,0-0.4,0-0.6,0.1c-0.2,0-0.3,0.1-0.4,0.2c-0.1,0.1-0.2,0.2-0.3,0.3c-0.1,0.1-0.1,0.3-0.1,0.4
	c0,0.2,0.1,0.3,0.2,0.5c0.1,0.1,0.3,0.2,0.4,0.3c0.2,0.1,0.4,0.2,0.6,0.2l0.7,0.2l0.7,0.2c0.2,0.1,0.4,0.2,0.6,0.4
	c0.2,0.1,0.3,0.3,0.4,0.5c0.1,0.2,0.2,0.5,0.1,0.7c0,0.3-0.1,0.6-0.2,0.9c-0.1,0.3-0.3,0.5-0.5,0.7c-0.2,0.2-0.5,0.4-0.8,0.5
	c-0.4,0.1-0.7,0.2-1.1,0.2c-0.5,0-0.9-0.1-1.3-0.2c-0.4-0.1-0.7-0.4-1-0.6l0.3-0.5c0-0.1,0.1-0.1,0.1-0.1c0.1,0,0.1-0.1,0.2,0
	c0.1,0,0.2,0,0.3,0.1l0.3,0.2c0.1,0.1,0.3,0.2,0.5,0.2c0.2,0.1,0.5,0.1,0.7,0.1c0.2,0,0.4,0,0.6-0.1c0.2-0.1,0.3-0.1,0.5-0.2
	c0.1-0.1,0.2-0.2,0.3-0.4c0.1-0.1,0.1-0.3,0.1-0.4c0-0.2,0-0.3-0.2-0.5c-0.1-0.1-0.2-0.2-0.4-0.3c-0.2-0.1-0.4-0.2-0.6-0.2l-0.7-0.2
	c-0.2-0.1-0.5-0.2-0.7-0.2c-0.2-0.1-0.4-0.2-0.6-0.4c-0.2-0.1-0.3-0.3-0.4-0.5c-0.1-0.2-0.2-0.5-0.1-0.8c0-0.3,0.1-0.5,0.2-0.8
	c0.1-0.2,0.3-0.5,0.5-0.6c0.2-0.2,0.5-0.3,0.8-0.4c0.3-0.1,0.7-0.2,1.1-0.2c0.4,0,0.8,0.1,1.2,0.2c0.3,0.1,0.7,0.3,0.9,0.6
	L214.3,38.6z"/>
<path class="st0" d="M58.4,17.5c-0.1,0.2-0.2,0.3-0.4,0.4c-0.1,0.1-0.3,0.1-0.5,0.1c-0.2,0-0.4-0.1-0.6-0.2l-0.7-0.4
	c-0.3-0.1-0.6-0.3-0.9-0.4c-0.4-0.1-0.7-0.2-1.1-0.2c-0.6,0-1.2,0.1-1.6,0.5c-0.4,0.3-0.6,0.8-0.5,1.3c0,0.3,0.1,0.6,0.3,0.9
	c0.2,0.2,0.5,0.4,0.9,0.6c0.4,0.2,0.8,0.3,1.2,0.5c0.4,0.1,0.9,0.3,1.4,0.5c0.5,0.2,0.9,0.4,1.4,0.6c0.4,0.2,0.9,0.5,1.2,0.9
	c0.4,0.4,0.6,0.8,0.8,1.3c0.2,0.6,0.3,1.2,0.3,1.8c0,0.7-0.1,1.5-0.4,2.2c-0.3,0.7-0.7,1.3-1.2,1.8c-0.5,0.5-1.2,0.9-1.9,1.2
	c-0.8,0.3-1.7,0.5-2.6,0.4c-0.5,0-1.1-0.1-1.6-0.2c-0.5-0.1-1.1-0.3-1.6-0.5c-0.5-0.2-1-0.4-1.4-0.7c-0.4-0.3-0.8-0.6-1.2-0.9
	l1.1-1.8c0.1-0.1,0.2-0.3,0.4-0.3c0.1-0.1,0.3-0.1,0.5-0.1c0.3,0,0.5,0.1,0.7,0.2l0.8,0.5c0.3,0.2,0.7,0.3,1,0.5
	c0.4,0.2,0.9,0.2,1.4,0.2c0.6,0,1.2-0.1,1.7-0.5c0.4-0.4,0.6-0.9,0.6-1.5c0-0.4-0.1-0.7-0.3-1c-0.2-0.3-0.5-0.5-0.9-0.6
	c-0.4-0.2-0.8-0.3-1.2-0.4c-0.4-0.1-0.9-0.3-1.4-0.4c-0.5-0.1-0.9-0.3-1.4-0.5c-0.4-0.2-0.9-0.5-1.2-0.9c-0.4-0.4-0.7-0.8-0.8-1.3
	c-0.2-0.6-0.4-1.3-0.3-2c0-0.6,0.1-1.3,0.4-1.9c0.3-0.6,0.6-1.1,1.1-1.6c0.5-0.5,1.1-0.9,1.8-1.1c0.8-0.3,1.6-0.4,2.5-0.4
	c0.5,0,1,0,1.5,0.1c0.5,0.1,0.9,0.2,1.4,0.4c0.4,0.2,0.8,0.3,1.2,0.6c0.4,0.2,0.7,0.5,1,0.8L58.4,17.5z"/>
<path class="st0" d="M77.2,31h-3c-0.3,0-0.6-0.1-0.8-0.2c-0.2-0.1-0.4-0.4-0.4-0.6l-1-2.9h-6.4l-1,2.9c-0.1,0.2-0.2,0.4-0.4,0.6
	c-0.2,0.2-0.5,0.3-0.8,0.3h-3l6.5-16.8h4L77.2,31z M66.4,24.5H71l-1.5-4.6c-0.1-0.3-0.2-0.6-0.4-1s-0.3-0.8-0.4-1.3
	c-0.1,0.5-0.2,0.9-0.4,1.3s-0.2,0.8-0.4,1L66.4,24.5z"/>
<path class="st0" d="M87.6,24.2c0.1,0.3,0.3,0.6,0.4,1c0.1-0.3,0.3-0.7,0.4-1l0.4-0.9l4.3-8.5c0.1-0.1,0.1-0.2,0.2-0.3
	c0.1-0.1,0.2-0.1,0.3-0.2c0.1,0,0.2-0.1,0.3,0h3.4V31h-3.4v-9.7c0-0.5,0-1,0.1-1.5l-4.4,8.6c-0.1,0.3-0.3,0.5-0.6,0.6
	c-0.2,0.1-0.5,0.2-0.8,0.2h-0.5c-0.3,0-0.6-0.1-0.8-0.2c-0.2-0.1-0.4-0.4-0.6-0.6L82,19.8c0,0.3,0.1,0.5,0.1,0.8s0,0.5,0,0.7V31
	h-3.4V14.1H82c0.1,0,0.2,0,0.3,0c0.1,0,0.2,0.1,0.3,0.2c0.1,0.1,0.2,0.2,0.2,0.3l4.3,8.5C87.4,23.6,87.5,23.9,87.6,24.2z"/>
<path class="st0" d="M104.2,25.3V31h-3.9V14.1h5.9c1,0,2.1,0.1,3.1,0.4c0.8,0.2,1.5,0.6,2.1,1.2c0.5,0.5,1,1.1,1.2,1.7
	c0.3,0.7,0.4,1.4,0.4,2.2c0,0.8-0.1,1.6-0.4,2.3c-0.3,0.7-0.7,1.3-1.2,1.8c-0.6,0.5-1.3,0.9-2.1,1.2c-1,0.3-2,0.5-3,0.4H104.2z
	 M104.2,22.4h2c0.8,0.1,1.6-0.2,2.2-0.7c0.5-0.6,0.7-1.3,0.7-2c0-0.4-0.1-0.7-0.2-1c-0.1-0.3-0.3-0.6-0.5-0.8
	c-0.3-0.2-0.6-0.4-0.9-0.5c-0.4-0.1-0.8-0.2-1.3-0.2h-2V22.4z"/>
<path class="st0" d="M118.9,27.8h6.2V31H115V14.1h3.9V27.8z"/>
<path class="st0" d="M137.8,14.1v3h-6.9V21h5.3v2.9h-5.3v4h6.9v3H127V14.1H137.8z"/>
<path class="st0" d="M153.9,17.5c-0.1,0.2-0.2,0.3-0.4,0.4c-0.1,0.1-0.3,0.1-0.5,0.1c-0.2,0-0.4-0.1-0.6-0.2l-0.7-0.4
	c-0.3-0.1-0.6-0.3-0.9-0.4c-0.4-0.1-0.7-0.2-1.1-0.2c-0.6,0-1.2,0.1-1.6,0.5c-0.4,0.3-0.6,0.8-0.5,1.3c0,0.3,0.1,0.6,0.3,0.9
	c0.2,0.2,0.5,0.4,0.9,0.6c0.4,0.2,0.8,0.3,1.2,0.5c0.4,0.1,0.9,0.3,1.4,0.5c0.5,0.2,0.9,0.4,1.4,0.6c0.4,0.2,0.8,0.5,1.2,0.9
	c0.4,0.4,0.7,0.8,0.9,1.3c0.2,0.6,0.3,1.2,0.3,1.8c0,0.7-0.1,1.5-0.4,2.2c-0.3,0.7-0.7,1.3-1.2,1.8c-0.5,0.5-1.2,0.9-1.9,1.2
	c-0.8,0.3-1.7,0.5-2.5,0.4c-0.5,0-1.1-0.1-1.6-0.2c-0.5-0.1-1.1-0.3-1.6-0.5c-0.5-0.2-1-0.4-1.4-0.7c-0.4-0.3-0.8-0.6-1.2-0.9
	l1.2-1.8c0.1-0.1,0.2-0.3,0.4-0.3c0.2-0.1,0.3-0.1,0.5-0.1c0.2,0,0.5,0.1,0.7,0.2l0.8,0.5c0.3,0.2,0.7,0.3,1,0.5
	c0.4,0.2,0.9,0.2,1.4,0.2c0.6,0,1.2-0.1,1.6-0.5c0.4-0.4,0.6-0.9,0.6-1.5c0-0.4-0.1-0.7-0.3-1c-0.2-0.3-0.5-0.5-0.9-0.6
	c-0.4-0.2-0.8-0.3-1.2-0.4c-0.4-0.1-0.9-0.3-1.4-0.4c-0.5-0.1-0.9-0.3-1.4-0.5c-0.4-0.2-0.9-0.5-1.2-0.9c-0.4-0.4-0.7-0.8-0.9-1.3
	c-0.2-0.6-0.3-1.3-0.3-2c0-1.3,0.5-2.6,1.5-3.5c0.5-0.5,1.1-0.9,1.8-1.1c0.8-0.3,1.6-0.4,2.5-0.4c0.5,0,1,0,1.5,0.1
	c0.9,0.2,1.8,0.5,2.6,0.9c0.4,0.2,0.7,0.5,1,0.8L153.9,17.5z"/>
<path class="st0" d="M169.2,14.1v3.1h-4.7V31h-3.9V17.2h-4.7v-3.1L169.2,14.1z"/>
<path class="st0" d="M186.8,22.5c0,1.2-0.2,2.3-0.6,3.4c-0.4,1-1,1.9-1.8,2.7c-0.8,0.8-1.7,1.4-2.8,1.8c-2.3,0.9-4.9,0.9-7.2,0
	c-2.1-0.8-3.7-2.5-4.5-4.5c-0.8-2.2-0.8-4.6,0-6.8c0.4-1,1-2,1.8-2.7c0.8-0.8,1.7-1.4,2.8-1.8c2.3-0.9,4.9-0.9,7.2,0
	c1,0.4,2,1,2.8,1.8c0.8,0.8,1.4,1.7,1.8,2.7C186.6,20.2,186.8,21.4,186.8,22.5z M182.8,22.5c0-0.8-0.1-1.5-0.3-2.2
	c-0.2-0.6-0.5-1.2-0.9-1.7c-0.4-0.5-0.9-0.8-1.5-1.1c-1.3-0.5-2.7-0.5-4,0c-0.6,0.3-1.1,0.6-1.4,1.1c-0.4,0.5-0.7,1.1-0.9,1.7
	c-0.2,0.7-0.3,1.5-0.3,2.2c0,0.8,0.1,1.5,0.3,2.3c0.2,0.6,0.5,1.2,0.9,1.7c0.4,0.5,0.9,0.8,1.5,1.1c1.3,0.5,2.7,0.5,4,0
	c0.6-0.2,1.1-0.6,1.5-1.1c0.4-0.5,0.7-1.1,0.9-1.7C182.7,24.1,182.8,23.3,182.8,22.5L182.8,22.5z"/>
<path class="st0" d="M192.6,24.7V31h-3.9V14.1h5.5c1,0,2.1,0.1,3.1,0.4c0.8,0.2,1.5,0.6,2.1,1c0.5,0.4,0.9,1,1.2,1.6
	c0.3,0.6,0.4,1.3,0.4,2c0,0.5-0.1,1-0.2,1.5c-0.1,0.5-0.4,0.9-0.7,1.4c-0.3,0.4-0.7,0.8-1.1,1.1c-0.4,0.3-0.9,0.6-1.5,0.8
	c0.3,0.1,0.5,0.3,0.7,0.5c0.2,0.2,0.4,0.4,0.6,0.7l3.6,5.9h-3.5c-0.6,0-1.1-0.2-1.4-0.7l-2.8-4.9c-0.1-0.2-0.2-0.4-0.4-0.5
	c-0.2-0.1-0.5-0.1-0.7-0.1L192.6,24.7z M192.6,22h1.6c0.5,0,0.9-0.1,1.4-0.2c0.3-0.1,0.7-0.3,0.9-0.6c0.2-0.2,0.4-0.5,0.5-0.8
	c0.1-0.3,0.2-0.7,0.2-1c0-0.7-0.2-1.3-0.7-1.7c-0.6-0.5-1.4-0.7-2.2-0.6h-1.6V22z"/>
<path class="st0" d="M214.8,14.1v3h-6.9V21h5.3v2.9h-5.3v4h6.9v3H204V14.1H214.8z"/>
<rect x="12.2" y="27.8" class="st1" width="7.9" height="4"/>
<rect x="12.2" y="22.4" class="st2" width="7.9" height="4"/>
<rect x="12.2" y="17.1" class="st2" width="7.9" height="4"/>
<rect x="12.2" y="11.7" class="st3" width="7.9" height="4"/>
<rect x="12.2" y="6.3" class="st3" width="7.9" height="4"/>
<rect x="31.2" y="27.8" class="st1" width="7.9" height="4"/>
<rect x="31.2" y="22.4" class="st2" width="7.9" height="4"/>
<rect x="31.2" y="17.1" class="st2" width="7.9" height="4"/>
<rect x="31.2" y="11.7" class="st3" width="7.9" height="4"/>
<rect x="21.7" y="27.8" class="st1" width="7.9" height="4"/>
<rect x="21.7" y="22.4" class="st2" width="7.9" height="4"/>
<rect x="21.7" y="17.1" class="st2" width="7.9" height="4"/>
<rect x="2.6" y="27.8" class="st1" width="7.9" height="4"/>
<rect x="2.6" y="22.4" class="st2" width="7.9" height="4"/>
</svg>
