<svg width="124" height="30" viewBox="0 0 124 30" fill="none" xmlns="http://www.w3.org/2000/svg">
<path d="M38.952 24.154C37.8227 24.154 36.8107 23.9707 35.916 23.604C35.0213 23.2373 34.3027 22.6947 33.76 21.976C33.232 21.2573 32.9533 20.392 32.924 19.38H36.928C36.9867 19.952 37.1847 20.392 37.522 20.7C37.8593 20.9933 38.2993 21.14 38.842 21.14C39.3993 21.14 39.8393 21.0153 40.162 20.766C40.4847 20.502 40.646 20.1427 40.646 19.688C40.646 19.3067 40.514 18.9913 40.25 18.742C40.0007 18.4927 39.6853 18.2873 39.304 18.126C38.9373 17.9647 38.4093 17.7813 37.72 17.576C36.7227 17.268 35.9087 16.96 35.278 16.652C34.6473 16.344 34.1047 15.8893 33.65 15.288C33.1953 14.6867 32.968 13.902 32.968 12.934C32.968 11.4967 33.4887 10.3747 34.53 9.568C35.5713 8.74667 36.928 8.336 38.6 8.336C40.3013 8.336 41.6727 8.74667 42.714 9.568C43.7553 10.3747 44.3127 11.504 44.386 12.956H40.316C40.2867 12.4573 40.1033 12.0687 39.766 11.79C39.4287 11.4967 38.996 11.35 38.468 11.35C38.0133 11.35 37.6467 11.4747 37.368 11.724C37.0893 11.9587 36.95 12.3033 36.95 12.758C36.95 13.2567 37.1847 13.6453 37.654 13.924C38.1233 14.2027 38.8567 14.5033 39.854 14.826C40.8513 15.1633 41.658 15.486 42.274 15.794C42.9047 16.102 43.4473 16.5493 43.902 17.136C44.3567 17.7227 44.584 18.478 44.584 19.402C44.584 20.282 44.3567 21.0813 43.902 21.8C43.462 22.5187 42.8167 23.0907 41.966 23.516C41.1153 23.9413 40.1107 24.154 38.952 24.154ZM48.7912 10.448C48.1312 10.448 47.5885 10.2573 47.1632 9.876C46.7525 9.48 46.5472 8.996 46.5472 8.424C46.5472 7.83733 46.7525 7.35333 47.1632 6.972C47.5885 6.576 48.1312 6.378 48.7912 6.378C49.4365 6.378 49.9645 6.576 50.3752 6.972C50.8005 7.35333 51.0132 7.83733 51.0132 8.424C51.0132 8.996 50.8005 9.48 50.3752 9.876C49.9645 10.2573 49.4365 10.448 48.7912 10.448ZM50.6612 11.724V24H46.8992V11.724H50.6612ZM69.0514 11.592C70.5768 11.592 71.7868 12.054 72.6814 12.978C73.5908 13.902 74.0454 15.1853 74.0454 16.828V24H70.3054V17.334C70.3054 16.542 70.0928 15.9333 69.6674 15.508C69.2568 15.068 68.6848 14.848 67.9514 14.848C67.2181 14.848 66.6388 15.068 66.2134 15.508C65.8028 15.9333 65.5974 16.542 65.5974 17.334V24H61.8574V17.334C61.8574 16.542 61.6448 15.9333 61.2194 15.508C60.8088 15.068 60.2368 14.848 59.5034 14.848C58.7701 14.848 58.1908 15.068 57.7654 15.508C57.3548 15.9333 57.1494 16.542 57.1494 17.334V24H53.3874V11.724H57.1494V13.264C57.5308 12.7507 58.0294 12.3473 58.6454 12.054C59.2614 11.746 59.9581 11.592 60.7354 11.592C61.6594 11.592 62.4808 11.79 63.1994 12.186C63.9328 12.582 64.5048 13.1467 64.9154 13.88C65.3408 13.2053 65.9201 12.6553 66.6534 12.23C67.3868 11.8047 68.1861 11.592 69.0514 11.592ZM80.4385 13.462C80.8052 12.89 81.3112 12.428 81.9565 12.076C82.6018 11.724 83.3572 11.548 84.2225 11.548C85.2345 11.548 86.1512 11.8047 86.9725 12.318C87.7938 12.8313 88.4392 13.5647 88.9085 14.518C89.3925 15.4713 89.6345 16.5787 89.6345 17.84C89.6345 19.1013 89.3925 20.216 88.9085 21.184C88.4392 22.1373 87.7938 22.878 86.9725 23.406C86.1512 23.9193 85.2345 24.176 84.2225 24.176C83.3718 24.176 82.6165 24 81.9565 23.648C81.3112 23.296 80.8052 22.8413 80.4385 22.284V29.852H76.6765V11.724H80.4385V13.462ZM85.8065 17.84C85.8065 16.9013 85.5425 16.168 85.0145 15.64C84.5012 15.0973 83.8632 14.826 83.1005 14.826C82.3525 14.826 81.7145 15.0973 81.1865 15.64C80.6732 16.1827 80.4165 16.9233 80.4165 17.862C80.4165 18.8007 80.6732 19.5413 81.1865 20.084C81.7145 20.6267 82.3525 20.898 83.1005 20.898C83.8485 20.898 84.4865 20.6267 85.0145 20.084C85.5425 19.5267 85.8065 18.7787 85.8065 17.84ZM95.3701 7.72V24H91.6081V7.72H95.3701ZM109.668 17.664C109.668 18.016 109.646 18.3827 109.602 18.764H101.088C101.147 19.5267 101.389 20.1133 101.814 20.524C102.254 20.92 102.79 21.118 103.42 21.118C104.359 21.118 105.012 20.722 105.378 19.93H109.382C109.177 20.7367 108.803 21.4627 108.26 22.108C107.732 22.7533 107.065 23.2593 106.258 23.626C105.452 23.9927 104.55 24.176 103.552 24.176C102.35 24.176 101.279 23.9193 100.34 23.406C99.4018 22.8927 98.6684 22.1593 98.1404 21.206C97.6124 20.2527 97.3484 19.138 97.3484 17.862C97.3484 16.586 97.6051 15.4713 98.1184 14.518C98.6464 13.5647 99.3798 12.8313 100.318 12.318C101.257 11.8047 102.335 11.548 103.552 11.548C104.74 11.548 105.796 11.7973 106.72 12.296C107.644 12.7947 108.363 13.506 108.876 14.43C109.404 15.354 109.668 16.432 109.668 17.664ZM105.818 16.674C105.818 16.0287 105.598 15.5153 105.158 15.134C104.718 14.7527 104.168 14.562 103.508 14.562C102.878 14.562 102.342 14.7453 101.902 15.112C101.477 15.4787 101.213 15.9993 101.11 16.674H105.818ZM115.415 13.77C115.855 13.0953 116.405 12.5673 117.065 12.186C117.725 11.79 118.458 11.592 119.265 11.592V15.574H118.231C117.292 15.574 116.588 15.7793 116.119 16.19C115.65 16.586 115.415 17.29 115.415 18.302V24H111.653V11.724H115.415V13.77Z" fill="white"/>
<path d="M10.2844 8H8.92583C9.08302 8.88629 9.08302 9.79333 8.92583 10.6796C8.65025 12.2362 7.90347 13.6707 6.78641 14.7892C5.66935 15.9077 4.23585 16.6563 2.67962 16.9339C1.79333 17.0911 0.886291 17.0911 0 16.9339V18.2924C0.443588 18.3581 0.891387 18.3912 1.33981 18.3916C1.78824 18.3912 2.23603 18.3581 2.67962 18.2924C4.59424 18.0025 6.36563 17.1069 7.73418 15.7369C9.10273 14.3669 9.99646 12.5945 10.2844 10.6796C10.3501 10.236 10.3832 9.78824 10.3835 9.33981C10.3832 8.89139 10.3501 8.44359 10.2844 8V8Z" fill="#E51E27"/>
<path d="M13.2373 10.6796C13.2186 9.77212 13.0798 8.87109 12.8247 8H11.4206C11.7138 8.86404 11.8746 9.76747 11.8975 10.6796C11.8975 10.7547 11.8975 10.8324 11.8975 10.9074C11.8975 13.3083 10.9445 15.6111 9.24776 17.3099C7.55104 19.0086 5.24939 19.9644 2.84844 19.9672H2.67962C1.76816 19.9509 0.864522 19.7955 0 19.5063L0 20.9104C0.871924 21.1593 1.77295 21.2918 2.67962 21.3043H2.84844C5.60291 21.3008 8.24358 20.2052 10.1915 18.2577C12.1395 16.3103 13.2358 13.6699 13.24 10.9154C13.24 10.8404 13.24 10.7627 13.2373 10.6796Z" fill="#E51E27"/>
<path d="M16.3456 10.8297C16.333 9.9281 16.228 9.03019 16.0321 8.15005H14.6547C14.8706 9.02744 14.9875 9.92626 15.0031 10.8297C15.0031 10.9047 15.0031 10.9824 15.0031 11.0574C14.9998 14.2634 13.7345 17.3392 11.4809 19.6194C9.22729 21.8996 6.16656 23.2008 2.96087 23.2417H2.82153C1.96766 23.2427 1.11611 23.1529 0.28125 22.9737V24.3457C1.11846 24.5064 1.96904 24.5871 2.82153 24.5869C3.70804 24.5851 4.59218 24.4953 5.46096 24.3189C8.5272 23.7046 11.2864 22.0483 13.2704 19.6311C15.2544 17.2138 16.3409 14.1846 16.3456 11.0574C16.3456 10.9824 16.3456 10.9047 16.3456 10.8297Z" fill="#E51E27"/>
<path d="M17.5113 8H1.33981C0.984471 8 0.643685 8.14116 0.392422 8.39242C0.141158 8.64369 0 8.98447 0 9.33981L0 25.5194C0 25.8747 0.141158 26.2155 0.392422 26.4668C0.643685 26.718 0.984471 26.8592 1.33981 26.8592H17.5113C17.8667 26.8592 18.2075 26.718 18.4587 26.4668C18.71 26.2155 18.8511 25.8747 18.8511 25.5194V9.33981C18.8511 8.98447 18.71 8.64369 18.4587 8.39242C18.2075 8.14116 17.8667 8 17.5113 8V8ZM16.1715 24.1715H2.67962V10.6796H16.1715V24.1715Z" fill="#E51E27"/>
</svg>
